<svg version="1.1" xmlns="http://www.w3.org/2000/svg" viewBox="0 0 1241.2196304007905 1185.0342629309123" width="2482.439260801581" height="2370.0685258618246">
  <!-- svg-source:excalidraw -->
  
  <defs>
    <style class="style-fonts">
      @font-face {
        font-family: "Virgil";
        src: url("https://excalidraw.com/Virgil.woff2");
      }
      @font-face {
        font-family: "Cascadia";
        src: url("https://excalidraw.com/Cascadia.woff2");
      }
      @font-face {
        font-family: "Assistant";
        src: url("https://excalidraw.com/Assistant-Regular.woff2");
      }
    </style>
    
  </defs>
  <rect x="0" y="0" width="1241.2196304007905" height="1185.0342629309123" fill="#ffffff"></rect><g stroke-linecap="round" transform="translate(258.563881827753 204.307007136661) rotate(0 215.2734375 100)"><path d="M0 0 C164.79 0.82, 328.39 0.14, 430.55 0 M0 0 C147.93 1.71, 295.99 0.84, 430.55 0 M430.55 0 C430.07 52.92, 430.01 105.34, 430.55 200 M430.55 0 C428.23 47.31, 429.37 94.36, 430.55 200 M430.55 200 C341.09 198.51, 250.4 199.04, 0 200 M430.55 200 C271.17 198.23, 110.89 198.59, 0 200 M0 200 C-1.09 138.11, -1.48 78.73, 0 0 M0 200 C-0.13 126.92, 0.28 51.98, 0 0" stroke="#1e1e1e" stroke-width="2" fill="none"></path></g><g stroke-linecap="round" transform="translate(10 531.3414634321072) rotate(0 154.79296875 66.99999999999997)"><path d="M0 0 C81.66 -0.91, 161.73 0.21, 309.59 0 M0 0 C75.12 -2.46, 149.72 -1.87, 309.59 0 M309.59 0 C308.79 29.84, 308.03 58.11, 309.59 134 M309.59 0 C308.71 43.6, 307.45 87.72, 309.59 134 M309.59 134 C242.45 136.16, 177.55 133.83, 0 134 M309.59 134 C236.07 132.34, 162.72 132.88, 0 134 M0 134 C-0.36 90.37, 1.21 45.22, 0 0 M0 134 C0.46 96.71, 0.7 60.06, 0 0" stroke="#1e1e1e" stroke-width="2" fill="none"></path></g><g stroke-linecap="round" transform="translate(918.5617754877628 662.1528318057693) rotate(0 132.19140625 116.5)"><path d="M0 0 C78.49 1.6, 154.68 1.46, 264.38 0 M0 0 C100.92 1.78, 201.82 1.64, 264.38 0 M264.38 0 C262.82 71.49, 264.35 144.24, 264.38 233 M264.38 0 C264.31 69.98, 264.36 140.36, 264.38 233 M264.38 233 C175.88 233.75, 84.13 236.23, 0 233 M264.38 233 C204.6 233.51, 145 233.03, 0 233 M0 233 C1.36 174.69, -0.26 116.14, 0 0 M0 233 C-0.27 146.83, -1.51 61.78, 0 0" stroke="#1e1e1e" stroke-width="2" fill="none"></path></g><g stroke-linecap="round" transform="translate(342.38772827439334 771.2340080810634) rotate(0 183.0859375 50.5)"><path d="M0 0 C82.75 -0.17, 167.97 0.1, 366.17 0 M0 0 C77.68 -0.03, 156.41 -0.05, 366.17 0 M366.17 0 C366.08 28.25, 365.54 60.86, 366.17 101 M366.17 0 C364.4 27.81, 365.64 54.43, 366.17 101 M366.17 101 C222.42 100.4, 79.32 99.24, 0 101 M366.17 101 C257.57 102.72, 148.26 102.58, 0 101 M0 101 C-1.23 66.51, 0.65 32.97, 0 0 M0 101 C-1.48 77.75, -0.66 54.57, 0 0" stroke="#1e1e1e" stroke-width="2" fill="none"></path></g><g stroke-linecap="round" transform="translate(216.90975402213394 1041.0342629309125) rotate(0 202.80078125 66.99999999999994)"><path d="M0 0 C124.97 0.28, 247.13 -0.33, 405.6 0 M0 0 C119.89 0.35, 239.63 0.14, 405.6 0 M405.6 0 C405.98 29.77, 405.4 56.31, 405.6 134 M405.6 0 C404.85 39.1, 405.37 79.77, 405.6 134 M405.6 134 C312.38 135.8, 220.77 135.95, 0 134 M405.6 134 C254.39 134.21, 103.96 134.65, 0 134 M0 134 C1.7 93.9, -1.09 53.44, 0 0 M0 134 C1.09 104.09, 1.93 75.53, 0 0" stroke="#1e1e1e" stroke-width="2" fill="none"></path></g><g stroke-linecap="round" transform="translate(212.33079434039018 10.239955801184962) rotate(0 263.8671875 50.5)"><path d="M0 0 C155.88 -0.68, 313.1 -1.01, 527.73 0 M0 0 C146.86 0.27, 293.4 0.64, 527.73 0 M527.73 0 C527.17 19.24, 527.64 40.43, 527.73 101 M527.73 0 C529.03 34.88, 527.41 67.71, 527.73 101 M527.73 101 C325.09 100.85, 123.06 101.06, 0 101 M527.73 101 C363.38 101.06, 198.71 100.68, 0 101 M0 101 C-2.13 72.33, -2.28 39.4, 0 0 M0 101 C0.83 73.91, -0.59 47.06, 0 0" stroke="#1e1e1e" stroke-width="2" fill="none"></path></g><g stroke-linecap="round" transform="translate(816.1024429007905 10) rotate(0 207.55859375 50.5)"><path d="M0 0 C132.16 -0.01, 264.18 0.96, 415.12 0 M0 0 C113.69 1.57, 227.78 1.43, 415.12 0 M415.12 0 C414.73 32.16, 415.6 68.5, 415.12 101 M415.12 0 C415.31 25.36, 416.87 51.24, 415.12 101 M415.12 101 C295.13 101.46, 173.71 100.58, 0 101 M415.12 101 C294.84 102.39, 174.48 102.9, 0 101 M0 101 C-0.88 64.87, 0.17 32, 0 0 M0 101 C-1.43 76.62, -1.14 50.93, 0 0" stroke="#1e1e1e" stroke-width="2" fill="none"></path></g><g stroke-linecap="round"><g transform="translate(258.563881827753 245.307007136661) rotate(0 215.2734375 0)"><path d="M0 0 C113.21 1.84, 226.6 1.69, 430.55 0 M0 0 C101.37 -0.61, 203.87 -0.76, 430.55 0" stroke="#000" stroke-width="1" fill="none"></path></g></g><mask></mask><g stroke-linecap="round"><g transform="translate(258.563881827753 393.307007136661) rotate(0 215.2734375 0)"><path d="M0 0 C95.76 -0.31, 191.39 -1.14, 430.55 0 M0 0 C141.18 -0.16, 281.53 -0.04, 430.55 0" stroke="#000" stroke-width="1" fill="none"></path></g></g><mask></mask><g stroke-linecap="round"><g transform="translate(10 572.341463432107) rotate(0 154.79296875 0)"><path d="M0 0 C95.94 -1.14, 194.1 -1.26, 309.59 0 M0 0 C92.38 0.6, 185.46 0.91, 309.59 0" stroke="#000" stroke-width="1" fill="none"></path></g></g><mask></mask><g stroke-linecap="round"><g transform="translate(10 654.341463432107) rotate(0 154.79296875 0)"><path d="M0 0 C92.58 0.53, 184.38 2.35, 309.59 0 M0 0 C83.47 0.39, 168.44 -0.2, 309.59 0" stroke="#000" stroke-width="1" fill="none"></path></g></g><mask></mask><g stroke-linecap="round"><g transform="translate(918.5617754877628 703.1528318057693) rotate(0 132.19140625 0)"><path d="M0 0 C57.36 2.47, 114.25 0.47, 264.38 0 M0 0 C78.3 -1.14, 156.7 -0.24, 264.38 0" stroke="#000" stroke-width="1" fill="none"></path></g></g><mask></mask><g stroke-linecap="round"><g transform="translate(918.5617754877628 884.1528318057693) rotate(0 132.19140625 0)"><path d="M0 0 C54.69 -2.19, 110.2 -2.09, 264.38 0 M0 0 C90.16 1.46, 178.31 0.4, 264.38 0" stroke="#000" stroke-width="1" fill="none"></path></g></g><mask></mask><g stroke-linecap="round"><g transform="translate(342.38772827439334 812.2340080810634) rotate(0 183.0859375 0)"><path d="M0 0 C122.69 1.02, 245.99 2.57, 366.17 0 M0 0 C93.77 -2.01, 188.97 -2.08, 366.17 0" stroke="#000" stroke-width="1" fill="none"></path></g></g><mask></mask><g stroke-linecap="round"><g transform="translate(342.38772827439334 861.2340080810634) rotate(0 183.0859375 0)"><path d="M0 0 C76.9 2.43, 152.31 3.07, 366.17 0 M0 0 C136.43 0.97, 271.77 1.41, 366.17 0" stroke="#000" stroke-width="1" fill="none"></path></g></g><mask></mask><g stroke-linecap="round"><g transform="translate(216.90975402213394 1082.0342629309125) rotate(0 202.80078125 0)"><path d="M0 0 C86.69 0.13, 175.12 -1.69, 405.6 0 M0 0 C96.18 1.65, 192.49 2.07, 405.6 0" stroke="#000" stroke-width="1" fill="none"></path></g></g><mask></mask><g stroke-linecap="round"><g transform="translate(216.90975402213394 1164.0342629309123) rotate(0 202.80078125 0)"><path d="M0 0 C138.3 -2.85, 274.31 -1.11, 405.6 0 M0 0 C91.8 0.47, 183.72 0.13, 405.6 0" stroke="#000" stroke-width="1" fill="none"></path></g></g><mask></mask><g stroke-linecap="round"><g transform="translate(212.33079434039018 51.23995580118496) rotate(0 263.8671875 0)"><path d="M0 0 C205.55 2.2, 411.51 1.45, 527.73 0 M0 0 C156.93 -1.48, 313.42 -1.56, 527.73 0" stroke="#000" stroke-width="1" fill="none"></path></g></g><mask></mask><g stroke-linecap="round"><g transform="translate(212.33079434039018 100.23995580118496) rotate(0 263.8671875 0)"><path d="M0 0 C119.63 -1.84, 240.42 -1.73, 527.73 0 M0 0 C196.18 -0.29, 392.93 0.03, 527.73 0" stroke="#000" stroke-width="1" fill="none"></path></g></g><mask></mask><g stroke-linecap="round"><g transform="translate(816.1024429007905 51) rotate(0 207.55859375 0)"><path d="M0 0 C159.35 0.26, 319.55 0.55, 415.12 0 M0 0 C129.63 0.6, 258.85 0.08, 415.12 0" stroke="#000" stroke-width="1" fill="none"></path></g></g><mask></mask><g stroke-linecap="round"><g transform="translate(816.1024429007905 100) rotate(0 207.55859375 0)"><path d="M0 0 C121.55 0.23, 241.66 -0.65, 415.12 0 M0 0 C120.34 -1.68, 240.6 -1.18, 415.12 0" stroke="#000" stroke-width="1" fill="none"></path></g></g><mask></mask><g mask="url(#mask-3jJLgNYI2sAGbjbUBvxEc)" stroke-linecap="round"><g transform="translate(445.70102654306083 419.0836356626484) rotate(0 -59.76986989320517 63.26614157548593)"><path d="M0.38 0.14 C-19.65 21.07, -100.23 105.21, -120.13 126.41 M-0.88 -0.83 C-20.52 20.21, -97.95 106.84, -117.73 127.88" stroke="#1e1e1e" stroke-width="2" fill="none"></path></g><g transform="translate(445.70102654306083 419.0836356626484) rotate(0 -59.76986989320517 63.26614157548593)"><path d="M-119.72 127.61 L-113.98 111.66 L-104.22 122.53 L-118.4 126.22" stroke="none" stroke-width="0" fill="#ffffff" fill-rule="evenodd"></path><path d="M-117.73 127.88 C-116.29 122.76, -115.25 119.75, -113.24 113.57 M-117.73 127.88 C-116.11 123.12, -114.12 116.81, -113.24 113.57 M-113.24 113.57 C-110.24 116.77, -107.09 120.95, -103.88 122.12 M-113.24 113.57 C-110.32 116.79, -106.86 118.7, -103.88 122.12 M-103.88 122.12 C-108.73 123.61, -111.37 125.92, -117.73 127.88 M-103.88 122.12 C-108.45 124.09, -112.27 125.12, -117.73 127.88 M-117.73 127.88 C-117.73 127.88, -117.73 127.88, -117.73 127.88 M-117.73 127.88 C-117.73 127.88, -117.73 127.88, -117.73 127.88" stroke="#1e1e1e" stroke-width="2" fill="none"></path></g></g><mask id="mask-3jJLgNYI2sAGbjbUBvxEc"><rect x="0" y="0" fill="#fff" width="665.2407663294712" height="645.6159188136203"></rect><rect x="355.5231747772971" y="472.3497772381343" fill="#000" width="60.81596374511719" height="20" opacity="1"></rect></mask><g mask="url(#mask-4PhBdGmq4ocFSF_AGxLq4)" stroke-linecap="round"><g transform="translate(562.2242837180888 411.23518624812334) rotate(0 172.02792313386215 124.04812098782071)"><path d="M-0.59 -0.12 C56.77 41.34, 287.09 207.6, 344.55 248.92 M1.3 -1.23 C58.51 39.88, 286.84 205.53, 343.86 247.23" stroke="#1e1e1e" stroke-width="2" fill="none"></path></g><g transform="translate(562.2242837180888 411.23518624812334) rotate(0 172.02792313386215 124.04812098782071)"><path d="M343.12 245.32 L328.79 244.76 L335.93 232.44 L344.78 246.06" stroke="none" stroke-width="0" fill="#ffffff" fill-rule="evenodd"></path><path d="M343.86 247.23 C338.82 246.81, 335.11 245.33, 329.13 244.35 M343.86 247.23 C340.15 246, 336.31 245.15, 329.13 244.35 M329.13 244.35 C330.17 243.17, 332.9 239.13, 336.59 234.1 M329.13 244.35 C332.25 239.66, 335.13 236.24, 336.59 234.1 M336.59 234.1 C339.19 237.71, 340.1 239.41, 343.86 247.23 M336.59 234.1 C338.47 237.17, 340.45 241.6, 343.86 247.23 M343.86 247.23 C343.86 247.23, 343.86 247.23, 343.86 247.23 M343.86 247.23 C343.86 247.23, 343.86 247.23, 343.86 247.23" stroke="#1e1e1e" stroke-width="2" fill="none"></path></g></g><mask id="mask-4PhBdGmq4ocFSF_AGxLq4"><rect x="0" y="0" fill="#fff" width="1006.2801299858131" height="759.3314282237648"></rect><rect x="716.6442204017555" y="525.2833072359441" fill="#000" width="35.215972900390625" height="20" opacity="1"></rect></mask><g mask="url(#mask-2XEP-1VcDrj6JfEh6O8yp)" stroke-linecap="round"><g transform="translate(320.5859375 645.3891737118068) rotate(0 97.27478910488446 62.335357846521106)"><path d="M0.49 0.82 C33.03 21.57, 162.28 103.57, 194.62 124.35 M-0.71 0.21 C31.72 21.14, 161.3 105.15, 193.7 125.71" stroke="#1e1e1e" stroke-width="2" fill="none"></path></g><g transform="translate(320.5859375 645.3891737118068) rotate(0 97.27478910488446 62.335357846521106)"><path d="M193.36 126.12 L178.17 122.04 L186.61 111.87 L191.73 125.33" stroke="none" stroke-width="0" fill="#ffffff" fill-rule="evenodd"></path><path d="M193.7 125.71 C191 125.35, 185.85 124.72, 178.84 123.7 M193.7 125.71 C188.73 124.26, 182.17 123.92, 178.84 123.7 M178.84 123.7 C181.42 119.7, 184.26 116.87, 185.69 113.03 M178.84 123.7 C181.35 119.95, 183.51 115.63, 185.69 113.03 M185.69 113.03 C188.09 115.54, 189.91 119.6, 193.7 125.71 M185.69 113.03 C188.4 117.82, 190.92 121.52, 193.7 125.71 M193.7 125.71 C193.7 125.71, 193.7 125.71, 193.7 125.71 M193.7 125.71 C193.7 125.71, 193.7 125.71, 193.7 125.71" stroke="#1e1e1e" stroke-width="2" fill="none"></path></g></g><mask id="mask-2XEP-1VcDrj6JfEh6O8yp"><rect x="0" y="0" fill="#fff" width="615.1355157097689" height="870.0598894048491"></rect><rect x="373.6047527889666" y="697.7245315583281" fill="#000" width="88.51194763183594" height="20" opacity="1"></rect></mask><g mask="url(#mask-BgOSSBNVzxxlbobUT3_UG)" stroke-linecap="round"><g transform="translate(198.82463595451622 670.3186848115384) rotate(0 47.98875382070037 183.14104936504833)"><path d="M-0.04 0.8 C16.03 61.76, 80.34 304.66, 96.48 365.41 M-1.52 0.18 C14.43 61.29, 79.47 305.5, 95.79 366.49" stroke="#1e1e1e" stroke-width="2" fill="none"></path></g><g transform="translate(198.82463595451622 670.3186848115384) rotate(0 47.98875382070037 183.14104936504833)"><path d="M96.71 365.33 L84.19 354.61 L98.15 352.37 L94.94 366.16" stroke="none" stroke-width="0" fill="#ffffff" fill-rule="evenodd"></path><path d="M95.79 366.49 C93.88 363.6, 88.85 360.44, 86.16 354.99 M95.79 366.49 C93.77 363.57, 92.28 361.69, 86.16 354.99 M86.16 354.99 C89.94 354.46, 90.93 353.48, 98.41 351.72 M86.16 354.99 C90.01 354.37, 94.15 352.97, 98.41 351.72 M98.41 351.72 C98.33 355, 96.33 358.39, 95.79 366.49 M98.41 351.72 C97.73 357.77, 96.67 361.84, 95.79 366.49 M95.79 366.49 C95.79 366.49, 95.79 366.49, 95.79 366.49 M95.79 366.49 C95.79 366.49, 95.79 366.49, 95.79 366.49" stroke="#1e1e1e" stroke-width="2" fill="none"></path></g></g><mask id="mask-BgOSSBNVzxxlbobUT3_UG"><rect x="0" y="0" fill="#fff" width="394.80214359591696" height="1136.600783541635"></rect><rect x="217.1814088792205" y="843.4597341765867" fill="#000" width="59.26396179199219" height="20" opacity="1"></rect></mask><g mask="url(#mask-RPUJ8zvZZ9CuAF5iqbozm)" stroke-linecap="round"><g transform="translate(1009.8957299941192 896.1528318057693) rotate(0 -193.1922067359926 86.05643993494465)"><path d="M0.5 -0.87 C-63.76 27.52, -320.96 142.37, -385.6 171.15 M-0.7 1.29 C-65.04 29.73, -322.09 143.57, -386.14 172.18" stroke="#1e1e1e" stroke-width="2" fill="none"></path></g><g transform="translate(1009.8957299941192 896.1528318057693) rotate(0 -193.1922067359926 86.05643993494465)"><path d="M-388.11 171.79 L-376.55 161.51 L-371.99 172.12 L-384.33 171.88" stroke="none" stroke-width="0" fill="#ffffff" fill-rule="evenodd"></path><path d="M-386.14 172.18 C-384.38 169.76, -381.57 164.2, -376.29 160.86 M-386.14 172.18 C-382.83 169.43, -381.22 166.82, -376.29 160.86 M-376.29 160.86 C-375.92 164.02, -373.19 166.42, -371.14 172.45 M-376.29 160.86 C-374.82 163.8, -374.15 166.55, -371.14 172.45 M-371.14 172.45 C-375.78 172.41, -377.76 171.99, -386.14 172.18 M-371.14 172.45 C-375.24 171.9, -380.33 172.04, -386.14 172.18 M-386.14 172.18 C-386.14 172.18, -386.14 172.18, -386.14 172.18 M-386.14 172.18 C-386.14 172.18, -386.14 172.18, -386.14 172.18" stroke="#1e1e1e" stroke-width="2" fill="none"></path></g></g><mask id="mask-RPUJ8zvZZ9CuAF5iqbozm"><rect x="0" y="0" fill="#fff" width="1496.2801434661044" height="1168.2657116756586"></rect><rect x="769.5275512732633" y="972.2092717407139" fill="#000" width="94.35194396972656" height="20" opacity="1"></rect></mask><g mask="url(#mask-9mqPQ456zeAZ4Yvzidqxo)" stroke-linecap="round"><g transform="translate(474.8479542102066 114.89774040755728) rotate(0 -0.18226197719275206 34.1588322865627)"><path d="M0.79 -0.97 C0.48 10.51, -1.15 56.53, -1.34 67.98 M-0.26 1.14 C-0.25 12.87, 1 58.07, 0.86 69.34" stroke="#1e1e1e" stroke-width="2" fill="none"></path></g><g transform="translate(474.8479542102066 114.89774040755728) rotate(0 -0.18226197719275206 34.1588322865627)"><path d="M0.59 69.99 L-6.47 55.48 L8.86 55.38 L-0.88 69.84" stroke="none" stroke-width="0" fill="#ffffff" fill-rule="evenodd"></path><path d="M0.86 69.34 C-2.46 63.54, -3.89 60.14, -5.62 55.81 M0.86 69.34 C-1.33 66.71, -2.73 63.07, -5.62 55.81 M-5.62 55.81 C-1.36 55.06, 1.86 55.58, 7.06 55.68 M-5.62 55.81 C-1.55 55.57, 3.17 55.95, 7.06 55.68 M7.06 55.68 C6.08 59.43, 3.09 64.44, 0.86 69.34 M7.06 55.68 C4.08 60.6, 2.9 66.12, 0.86 69.34 M0.86 69.34 C0.86 69.34, 0.86 69.34, 0.86 69.34 M0.86 69.34 C0.86 69.34, 0.86 69.34, 0.86 69.34" stroke="#1e1e1e" stroke-width="2" fill="none"></path></g></g><mask id="mask-9mqPQ456zeAZ4Yvzidqxo"><rect x="0" y="0" fill="#fff" width="575.2124781645921" height="283.2154049806827"></rect><rect x="439.8977173794981" y="139.05657269411998" fill="#000" width="69.53594970703125" height="20" opacity="1"></rect></mask><g mask="url(#mask-pkyaUmKpz8nt-BNkJHgr2)" stroke-linecap="round"><g transform="translate(1039.2965165558485 114.64766653371125) rotate(0 0 267.9218340206403)"><path d="M-0.98 -0.34 C-1.11 89.03, -0.33 445.82, 0 535.26 M0.71 -1.56 C0.35 88.05, -0.96 447.2, -0.95 536.49" stroke="#1e1e1e" stroke-width="2" fill="none"></path></g><g transform="translate(1039.2965165558485 114.64766653371125) rotate(0 0 267.9218340206403)"><path d="M-1.8 536.16 L-5.46 522.58 L3.68 523.41 L-0.39 534.61" stroke="none" stroke-width="0" fill="#ffffff" fill-rule="evenodd"></path><path d="M-0.95 536.49 C-3.57 531.46, -6.18 527.74, -7.26 522.88 M-0.95 536.49 C-3.22 532.47, -5 526.71, -7.26 522.88 M-7.26 522.88 C-3.99 522.81, 1.15 523.3, 5.42 522.91 M-7.26 522.88 C-3.75 523.16, 0.35 522.57, 5.42 522.91 M5.42 522.91 C3.38 527.61, 3.04 531.49, -0.95 536.49 M5.42 522.91 C4.58 525.64, 3.17 529.35, -0.95 536.49 M-0.95 536.49 C-0.95 536.49, -0.95 536.49, -0.95 536.49 M-0.95 536.49 C-0.95 536.49, -0.95 536.49, -0.95 536.49" stroke="#1e1e1e" stroke-width="2" fill="none"></path></g></g><mask id="mask-pkyaUmKpz8nt-BNkJHgr2"><rect x="0" y="0" fill="#fff" width="1139.2965165558485" height="750.4913345749918"></rect><rect x="995.3365479889537" y="372.5695005543515" fill="#000" width="87.91993713378906" height="20" opacity="1"></rect></mask><g transform="translate(447.454506827753 209.307007136661) rotate(0 22.339981079101562 12.5)"><text x="0" y="17.52" font-family="Virgil, Segoe UI Emoji" font-size="20px" fill="#1e1e1e" text-anchor="start" style="white-space: pre;" direction="ltr" dominant-baseline="alphabetic">User</text></g><g transform="translate(266.063881827753 254.307007136661) rotate(0 96.02991485595703 12.5)"><text x="0" y="17.52" font-family="Virgil, Segoe UI Emoji" font-size="20px" fill="#1e1e1e" text-anchor="start" style="white-space: pre;" direction="ltr" dominant-baseline="alphabetic">+Use mobile devices</text></g><g transform="translate(266.063881827753 287.307007136661) rotate(0 171.40985107421875 12.5)"><text x="0" y="17.52" font-family="Virgil, Segoe UI Emoji" font-size="20px" fill="#1e1e1e" text-anchor="start" style="white-space: pre;" direction="ltr" dominant-baseline="alphabetic">+Create decentralized applications</text></g><g transform="translate(266.063881827753 320.307007136661) rotate(0 127.5298843383789 12.5)"><text x="0" y="17.52" font-family="Virgil, Segoe UI Emoji" font-size="20px" fill="#1e1e1e" text-anchor="start" style="white-space: pre;" direction="ltr" dominant-baseline="alphabetic">+Deploy apps to fleek.xyz</text></g><g transform="translate(266.063881827753 353.307007136661) rotate(0 190.8898468017578 12.5)"><text x="0" y="17.52" font-family="Virgil, Segoe UI Emoji" font-size="20px" fill="#1e1e1e" text-anchor="start" style="white-space: pre;" direction="ltr" dominant-baseline="alphabetic">+Store data on decentralized storage</text></g><g transform="translate(17.5 536.3414634321072) rotate(0 117.72988891601562 12.5)"><text x="0" y="17.52" font-family="Virgil, Segoe UI Emoji" font-size="20px" fill="#1e1e1e" text-anchor="start" style="white-space: pre;" direction="ltr" dominant-baseline="alphabetic">DecentralizedApplication</text></g><g transform="translate(17.5 581.341463432107) rotate(0 121.45989227294922 12.5)"><text x="0" y="17.52" font-family="Virgil, Segoe UI Emoji" font-size="20px" fill="#1e1e1e" text-anchor="start" style="white-space: pre;" direction="ltr" dominant-baseline="alphabetic">+Accessible by end users</text></g><g transform="translate(17.5 614.341463432107) rotate(0 113.57991027832031 12.5)"><text x="0" y="17.52" font-family="Virgil, Segoe UI Emoji" font-size="20px" fill="#1e1e1e" text-anchor="start" style="white-space: pre;" direction="ltr" dominant-baseline="alphabetic">+Permanent availability</text></g><g transform="translate(926.0617754877628 667.1528318057693) rotate(0 105.46990203857422 12.5)"><text x="0" y="17.52" font-family="Virgil, Segoe UI Emoji" font-size="20px" fill="#1e1e1e" text-anchor="start" style="white-space: pre;" direction="ltr" dominant-baseline="alphabetic">DecentralizedStorage</text></g><g transform="translate(926.0617754877628 712.1528318057693) rotate(0 95.32991027832031 12.5)"><text x="0" y="17.52" font-family="Virgil, Segoe UI Emoji" font-size="20px" fill="#1e1e1e" text-anchor="start" style="white-space: pre;" direction="ltr" dominant-baseline="alphabetic">+Hosts applications</text></g><g transform="translate(926.0617754877628 745.1528318057693) rotate(0 101.26990509033203 12.5)"><text x="0" y="17.52" font-family="Virgil, Segoe UI Emoji" font-size="20px" fill="#1e1e1e" text-anchor="start" style="white-space: pre;" direction="ltr" dominant-baseline="alphabetic">+Stores voice memos</text></g><g transform="translate(926.0617754877628 778.1528318057693) rotate(0 70.47993469238281 12.5)"><text x="0" y="17.52" font-family="Virgil, Segoe UI Emoji" font-size="20px" fill="#1e1e1e" text-anchor="start" style="white-space: pre;" direction="ltr" dominant-baseline="alphabetic">+Stores notes</text></g><g transform="translate(926.0617754877628 811.1528318057693) rotate(0 73.26992797851562 12.5)"><text x="0" y="17.52" font-family="Virgil, Segoe UI Emoji" font-size="20px" fill="#1e1e1e" text-anchor="start" style="white-space: pre;" direction="ltr" dominant-baseline="alphabetic">+Stores videos</text></g><g transform="translate(926.0617754877628 844.1528318057693) rotate(0 75.74992370605469 12.5)"><text x="0" y="17.52" font-family="Virgil, Segoe UI Emoji" font-size="20px" fill="#1e1e1e" text-anchor="start" style="white-space: pre;" direction="ltr" dominant-baseline="alphabetic">+Stores photos</text></g><g transform="translate(493.27444702439334 776.2340080810634) rotate(0 24.179977416992188 12.5)"><text x="0" y="17.52" font-family="Virgil, Segoe UI Emoji" font-size="20px" fill="#1e1e1e" text-anchor="start" style="white-space: pre;" direction="ltr" dominant-baseline="alphabetic">Fleek</text></g><g transform="translate(349.88772827439334 821.2340080810634) rotate(0 148.68984985351562 12.5)"><text x="0" y="17.52" font-family="Virgil, Segoe UI Emoji" font-size="20px" fill="#1e1e1e" text-anchor="start" style="white-space: pre;" direction="ltr" dominant-baseline="alphabetic">+Provides deployment platform</text></g><g transform="translate(371.58162902213394 1046.0342629309125) rotate(0 39.439971923828125 12.5)"><text x="0" y="17.52" font-family="Virgil, Segoe UI Emoji" font-size="20px" fill="#1e1e1e" text-anchor="start" style="white-space: pre;" direction="ltr" dominant-baseline="alphabetic">EndUser</text></g><g transform="translate(224.40975402213394 1091.0342629309123) rotate(0 168.39984130859375 12.5)"><text x="0" y="17.52" font-family="Virgil, Segoe UI Emoji" font-size="20px" fill="#1e1e1e" text-anchor="start" style="white-space: pre;" direction="ltr" dominant-baseline="alphabetic">+Utilize decentralized applications</text></g><g transform="translate(224.40975402213394 1124.0342629309123) rotate(0 117.92990112304688 12.5)"><text x="0" y="17.52" font-family="Virgil, Segoe UI Emoji" font-size="20px" fill="#1e1e1e" text-anchor="start" style="white-space: pre;" direction="ltr" dominant-baseline="alphabetic">+Access stored content</text></g><g transform="translate(398.4323568403902 15.239955801184962) rotate(0 59.74993896484375 12.5)"><text x="0" y="17.52" font-family="Virgil, Segoe UI Emoji" font-size="20px" fill="#1e1e1e" text-anchor="start" style="white-space: pre;" direction="ltr" dominant-baseline="alphabetic">MobileDevice</text></g><g transform="translate(219.83079434039018 60.23995580118496) rotate(0 239.64979553222656 12.5)"><text x="0" y="17.52" font-family="Virgil, Segoe UI Emoji" font-size="20px" fill="#1e1e1e" text-anchor="start" style="white-space: pre;" direction="ltr" dominant-baseline="alphabetic">+Stolen or lost does not affect stored content</text></g><g transform="translate(947.1219741507905 15) rotate(0 64.69993591308594 12.5)"><text x="0" y="17.52" font-family="Virgil, Segoe UI Emoji" font-size="20px" fill="#1e1e1e" text-anchor="start" style="white-space: pre;" direction="ltr" dominant-baseline="alphabetic">CloudStorage</text></g><g transform="translate(823.6024429007905 60) rotate(0 177.88983154296875 12.5)"><text x="0" y="17.52" font-family="Virgil, Segoe UI Emoji" font-size="20px" fill="#1e1e1e" text-anchor="start" style="white-space: pre;" direction="ltr" dominant-baseline="alphabetic">-Not utilized for permanent storage</text></g><g transform="translate(999.9540174692681 913.3847188604987) rotate(0 3.7360000610351562 10)"><text x="0" y="14.016" font-family="Virgil, Segoe UI Emoji" font-size="16px" fill="#1e1e1e" text-anchor="start" style="white-space: pre;" direction="ltr" dominant-baseline="alphabetic">n</text></g><g transform="translate(355.5231747772971 472.3497772381344) rotate(0 30.301980534195877 10.260239391913586)"><text x="30.407981872558594" y="14.016" font-family="Virgil, Segoe UI Emoji" font-size="16px" fill="#1e1e1e" text-anchor="middle" style="white-space: pre;" direction="ltr" dominant-baseline="alphabetic">creates</text></g><g transform="translate(716.6442204017555 525.283307235944) rotate(0 17.55720542967333 9.794478940884602)"><text x="17.607986450195312" y="14.016" font-family="Virgil, Segoe UI Emoji" font-size="16px" fill="#1e1e1e" text-anchor="middle" style="white-space: pre;" direction="ltr" dominant-baseline="alphabetic">uses</text></g><g transform="translate(373.6047527889666 697.724531558328) rotate(0 43.93338262275313 10.623845468154173)"><text x="44.25597381591797" y="14.016" font-family="Virgil, Segoe UI Emoji" font-size="16px" fill="#1e1e1e" text-anchor="middle" style="white-space: pre;" direction="ltr" dominant-baseline="alphabetic">deployed on</text></g><g transform="translate(217.1814088792205 843.4597341765868) rotate(0 29.12305760816207 10.194030829062683)"><text x="29.631980895996094" y="14.016" font-family="Virgil, Segoe UI Emoji" font-size="16px" fill="#1e1e1e" text-anchor="middle" style="white-space: pre;" direction="ltr" dominant-baseline="alphabetic">used by</text></g><g transform="translate(769.5275512732633 972.209271740714) rotate(0 47.550031717424304 9.59735045201603)"><text x="47.17597198486328" y="14.016" font-family="Virgil, Segoe UI Emoji" font-size="16px" fill="#1e1e1e" text-anchor="middle" style="white-space: pre;" direction="ltr" dominant-baseline="alphabetic">accessed by</text></g><g transform="translate(439.8977173794981 139.05657269411995) rotate(0 34.712285505115574 10.029279011557811)"><text x="34.767974853515625" y="14.016" font-family="Virgil, Segoe UI Emoji" font-size="16px" fill="#1e1e1e" text-anchor="middle" style="white-space: pre;" direction="ltr" dominant-baseline="alphabetic">operates</text></g><g transform="translate(995.3365479889542 372.5695005543515) rotate(0 43.817775663741145 9.54248853503725)"><text x="43.95996856689453" y="14.016" font-family="Virgil, Segoe UI Emoji" font-size="16px" fill="#1e1e1e" text-anchor="middle" style="white-space: pre;" direction="ltr" dominant-baseline="alphabetic">replaced by</text></g><g mask="url(#mask-7FuqMlK4R13Hdl4Yhz5q2)" stroke-linecap="round"><g transform="translate(724.2600639231903 799.8601371384433) rotate(0 83.91133313548676 1.8937314407803)"><path d="M-0.38 1.05 C27.73 1.65, 139.95 2.21, 167.8 2.62 M1.62 0.56 C29.64 1.35, 138.94 2.86, 166.85 3.54" stroke="#1e1e1e" stroke-width="2" fill="none"></path></g><g transform="translate(724.2600639231903 799.8601371384433) rotate(0 83.91133313548676 1.8937314407803)"><path d="M164.86 4.12 L154.35 11.36 L153.12 -2.73 L166.68 2.71" stroke="none" stroke-width="0" fill="#ffffff" fill-rule="evenodd"></path><path d="M166.85 3.54 C164.96 4.88, 159.02 4.96, 153.14 9.63 M166.85 3.54 C163.46 5.22, 158.58 7.59, 153.14 9.63 M153.14 9.63 C152.78 6.47, 152.91 0.44, 153.37 -3.05 M153.14 9.63 C152.81 5.22, 153.48 1.93, 153.37 -3.05 M153.37 -3.05 C156.78 -1.96, 161.05 -0.69, 166.85 3.54 M153.37 -3.05 C158.38 -0.68, 162.39 1.22, 166.85 3.54 M166.85 3.54 C166.85 3.54, 166.85 3.54, 166.85 3.54 M166.85 3.54 C166.85 3.54, 166.85 3.54, 166.85 3.54" stroke="#1e1e1e" stroke-width="2" fill="none"></path></g></g><mask id="mask-7FuqMlK4R13Hdl4Yhz5q2"><rect x="0" y="0" fill="#fff" width="992.0827301941638" height="903.6476000200039"></rect><rect x="763.9154232427591" y="791.7538685792236" fill="#000" width="88.51194763183594" height="20" opacity="1"></rect></mask><g transform="translate(763.9154232427591 791.7538685792235) rotate(0 44.05565358102319 10.15737128092917)"><text x="44.25597381591797" y="14.016" font-family="Virgil, Segoe UI Emoji" font-size="16px" fill="#1e1e1e" text-anchor="middle" style="white-space: pre;" direction="ltr" dominant-baseline="alphabetic">deployed on</text></g></svg>