<svg version="1.1" xmlns="http://www.w3.org/2000/svg" viewBox="0 0 1794.5758405643583 1297.035943425245" width="3589.1516811287165" height="2594.07188685049">
  <!-- svg-source:excalidraw -->
  
  <defs>
    <style class="style-fonts">
      @font-face {
        font-family: "Virgil";
        src: url("https://excalidraw.com/Virgil.woff2");
      }
      @font-face {
        font-family: "Cascadia";
        src: url("https://excalidraw.com/Cascadia.woff2");
      }
      @font-face {
        font-family: "Assistant";
        src: url("https://excalidraw.com/Assistant-Regular.woff2");
      }
    </style>
    
  </defs>
  <rect x="0" y="0" width="1794.5758405643583" height="1297.035943425245" fill="#ffffff"></rect><g stroke-linecap="round" transform="translate(407.8659760067776 10) rotate(0 132.52734375 98.74064140503845)"><path d="M0 0 C60.46 0.91, 122.72 1.67, 265.05 0 M0 0 C97.46 -0.23, 195.93 -0.25, 265.05 0 M265.05 0 C265.72 44.68, 265.64 89.41, 265.05 197.48 M265.05 0 C263 61.6, 264.4 123.31, 265.05 197.48 M265.05 197.48 C182.03 199.41, 95.34 200.72, 0 197.48 M265.05 197.48 C165.17 198.91, 66.13 198.04, 0 197.48 M0 197.48 C-1.02 150.91, 0.48 105.16, 0 0 M0 197.48 C-0.84 120.62, 0.62 44.72, 0 0" stroke="#1e1e1e" stroke-width="2" fill="none"></path></g><g stroke-linecap="round" transform="translate(428.6570328586049 798.8823692740867) rotate(0 112.79296875 116.5)"><path d="M0 0 C65.13 0.73, 130.75 -0.62, 225.59 0 M0 0 C73.97 -0.45, 146.65 -0.9, 225.59 0 M225.59 0 C227.25 53.83, 226.74 106.35, 225.59 233 M225.59 0 C225.48 86.23, 224.84 172.58, 225.59 233 M225.59 233 C138.1 234.9, 54.48 234.41, 0 233 M225.59 233 C148.59 234.26, 72.45 234.98, 0 233 M0 233 C1.26 163.51, 1.44 95.85, 0 0 M0 233 C2.15 151.47, 2.14 69.87, 0 0" stroke="#1e1e1e" stroke-width="2" fill="none"></path></g><g stroke-linecap="round" transform="translate(10 487.08561209841537) rotate(0 82.07421875 50.5)"><path d="M0 0 C57.29 -1.26, 112.36 -2.36, 164.15 0 M0 0 C55.16 -0.77, 111.1 -0.16, 164.15 0 M164.15 0 C164.86 28.49, 166.02 59.3, 164.15 101 M164.15 0 C165.28 26.32, 165.92 55.12, 164.15 101 M164.15 101 C114.27 103.93, 62.19 100.67, 0 101 M164.15 101 C101.26 101.03, 39.69 100.51, 0 101 M0 101 C0.96 75.53, 0.23 48.37, 0 0 M0 101 C-0.02 75.66, -0.81 50.2, 0 0" stroke="#1e1e1e" stroke-width="2" fill="none"></path></g><g stroke-linecap="round" transform="translate(224.1484375 487.08561209841537) rotate(0 89.2578125 50.5)"><path d="M0 0 C69.88 -1.07, 139.52 0.59, 178.52 0 M0 0 C59.71 0.72, 120.78 0.69, 178.52 0 M178.52 0 C180.09 29.23, 178.03 62.17, 178.52 101 M178.52 0 C179.52 26.05, 178.83 49.79, 178.52 101 M178.52 101 C108.56 100.31, 38.67 100.52, 0 101 M178.52 101 C130.35 101.96, 81.83 102.7, 0 101 M0 101 C0.12 74.49, -1.89 52.53, 0 0 M0 101 C-0.79 70.75, -0.27 40.95, 0 0" stroke="#1e1e1e" stroke-width="2" fill="none"></path></g><g stroke-linecap="round" transform="translate(452.6640625 487.08561209841537) rotate(0 92.68359375 50.5)"><path d="M0 0 C58.2 1.6, 115.55 -0.63, 185.37 0 M0 0 C52.97 -0.44, 105.96 -0.74, 185.37 0 M185.37 0 C185.47 24.04, 185.1 44.66, 185.37 101 M185.37 0 C186.32 20.99, 187.16 44.23, 185.37 101 M185.37 101 C118.77 97.55, 48.41 97.86, 0 101 M185.37 101 C119.5 101.78, 54.04 101.89, 0 101 M0 101 C-1.52 71.84, -0.61 41.36, 0 0 M0 101 C0.53 71.97, -0.27 44.78, 0 0" stroke="#1e1e1e" stroke-width="2" fill="none"></path></g><g stroke-linecap="round" transform="translate(688.03125 487.08561209841537) rotate(0 89.71484375 50.5)"><path d="M0 0 C46.5 -2.15, 91.18 -2.06, 179.43 0 M0 0 C62.25 -0.64, 123.73 -0.06, 179.43 0 M179.43 0 C178.12 26.04, 177.42 53.01, 179.43 101 M179.43 0 C180.52 38.89, 180.24 76.68, 179.43 101 M179.43 101 C142.07 98.11, 107 99.37, 0 101 M179.43 101 C124.84 103.23, 71.33 102.86, 0 101 M0 101 C0.41 80.16, 0.16 56.48, 0 0 M0 101 C-0.8 76.31, -1.36 50.8, 0 0" stroke="#1e1e1e" stroke-width="2" fill="none"></path></g><g stroke-linecap="round" transform="translate(971.110802510932 834.5470504000276) rotate(0 143.76171875 67)"><path d="M0 0 C97 0.56, 195.14 1.57, 287.52 0 M0 0 C98.13 0.25, 197.14 -0.53, 287.52 0 M287.52 0 C285.16 54.48, 288.41 105.93, 287.52 134 M287.52 0 C289.49 30.43, 287.86 60.88, 287.52 134 M287.52 134 C226.31 132.42, 163.53 131.79, 0 134 M287.52 134 C179.39 136.25, 70.63 135.5, 0 134 M0 134 C-0.28 84.76, -0.87 36.86, 0 0 M0 134 C-0.42 101.25, 0.91 66.48, 0 0" stroke="#1e1e1e" stroke-width="2" fill="none"></path></g><g stroke-linecap="round" transform="translate(928.7264510550467 18.314766181450523) rotate(0 161.578125 83.5)"><path d="M0 0 C73.83 1.52, 146.97 1.52, 323.16 0 M0 0 C100.98 -1.83, 203.26 -1.96, 323.16 0 M323.16 0 C323.3 53.35, 320.23 108.1, 323.16 167 M323.16 0 C323.34 63.24, 323.44 124.61, 323.16 167 M323.16 167 C248.51 166.21, 174.89 166.13, 0 167 M323.16 167 C197.65 167.76, 73.71 168.08, 0 167 M0 167 C-0.65 106.98, -0.69 44.61, 0 0 M0 167 C1.98 102.34, 1.86 38.18, 0 0" stroke="#1e1e1e" stroke-width="2" fill="none"></path></g><g stroke-linecap="round" transform="translate(960.3025004130468 477.5110610687909) rotate(0 142.6953125 83.5)"><path d="M0 0 C66.63 0.02, 132.14 -1.18, 285.39 0 M0 0 C106.85 0.29, 212.4 0.03, 285.39 0 M285.39 0 C285.17 65.73, 288.17 128.96, 285.39 167 M285.39 0 C282.96 56.16, 283.11 113.45, 285.39 167 M285.39 167 C202.53 165.16, 118.68 166, 0 167 M285.39 167 C186.07 165.86, 86.25 165.77, 0 167 M0 167 C-0.19 118.51, 2.5 69.73, 0 0 M0 167 C-0.36 102.05, -0.37 36.32, 0 0" stroke="#1e1e1e" stroke-width="2" fill="none"></path></g><g stroke-linecap="round" transform="translate(426.578431414644 1145.2751281757205) rotate(0 110.3515625 66.7689580738089)"><path d="M0 0 C66.02 -1.37, 132.82 -0.76, 220.7 0 M0 0 C59.53 0.22, 119.45 1.62, 220.7 0 M220.7 0 C221.17 43.14, 220.45 81.66, 220.7 133.54 M220.7 0 C218.89 51.13, 219.52 101.22, 220.7 133.54 M220.7 133.54 C166.47 132.54, 110.1 131.11, 0 133.54 M220.7 133.54 C166.27 133.29, 110.61 133.03, 0 133.54 M0 133.54 C2.37 86.46, 2.43 44, 0 0 M0 133.54 C-0.09 96.01, -0.6 59.62, 0 0" stroke="#1e1e1e" stroke-width="2" fill="none"></path></g><g stroke-linecap="round" transform="translate(920.730724088648 1153.035943425245) rotate(0 168.31640625 67)"><path d="M0 0 C101.43 1.21, 200.51 3.09, 336.63 0 M0 0 C84.78 2.44, 168.55 1.41, 336.63 0 M336.63 0 C338.39 51.18, 339.2 104.47, 336.63 134 M336.63 0 C335.65 36.12, 335.23 72.98, 336.63 134 M336.63 134 C254.35 132.95, 170.05 134.91, 0 134 M336.63 134 C237.28 133.29, 138.38 133.28, 0 134 M0 134 C0.63 100.1, -1.64 65.26, 0 0 M0 134 C-0.59 93.26, -0.51 53.82, 0 0" stroke="#1e1e1e" stroke-width="2" fill="none"></path></g><g stroke-linecap="round"><g transform="translate(407.8659760067776 51) rotate(0 132.52734375 0)"><path d="M0 0 C57.63 2.45, 115.46 1.24, 265.05 0 M0 0 C57.16 -2.23, 114.88 -1.04, 265.05 0" stroke="#000" stroke-width="1" fill="none"></path></g></g><mask></mask><g stroke-linecap="round"><g transform="translate(407.8659760067776 67) rotate(0 132.52734375 0)"><path d="M0 0 C66.62 -1.7, 133.48 -0.68, 265.05 0 M0 0 C100.88 2.18, 200.77 1.89, 265.05 0" stroke="#000" stroke-width="1" fill="none"></path></g></g><mask></mask><g stroke-linecap="round"><g transform="translate(428.6570328586049 872.8823692740867) rotate(0 112.79296875 0)"><path d="M0 0 C87.5 1.06, 179.24 -0.12, 225.59 0 M0 0 C51.16 -1.1, 100.35 -0.75, 225.59 0" stroke="#000" stroke-width="1" fill="none"></path></g></g><mask></mask><g stroke-linecap="round"><g transform="translate(428.6570328586049 1020.8823692740867) rotate(0 112.79296875 0)"><path d="M0 0 C73.04 -1.37, 142.12 0.06, 225.59 0 M0 0 C83.55 -0.06, 168.01 -1, 225.59 0" stroke="#000" stroke-width="1" fill="none"></path></g></g><mask></mask><g stroke-linecap="round"><g transform="translate(10 528.0856120984154) rotate(0 82.07421875 0)"><path d="M0 0 C61.2 1.71, 126.91 1.14, 164.15 0 M0 0 C54.66 -1.6, 110.31 -0.77, 164.15 0" stroke="#000" stroke-width="1" fill="none"></path></g></g><mask></mask><g stroke-linecap="round"><g transform="translate(10 577.0856120984154) rotate(0 82.07421875 0)"><path d="M0 0 C52.84 -0.22, 103.48 -3.48, 164.15 0 M0 0 C61.51 1.03, 124.35 0.51, 164.15 0" stroke="#000" stroke-width="1" fill="none"></path></g></g><mask></mask><g stroke-linecap="round"><g transform="translate(224.1484375 528.0856120984154) rotate(0 89.2578125 0)"><path d="M0 0 C71.48 -3.11, 143.01 -2.9, 178.52 0 M0 0 C48.05 -0.93, 95.74 -0.18, 178.52 0" stroke="#000" stroke-width="1" fill="none"></path></g></g><mask></mask><g stroke-linecap="round"><g transform="translate(224.1484375 577.0856120984154) rotate(0 89.2578125 0)"><path d="M0 0 C67.23 0.01, 130.7 0.32, 178.52 0 M0 0 C62.5 0.74, 125.42 0.84, 178.52 0" stroke="#000" stroke-width="1" fill="none"></path></g></g><mask></mask><g stroke-linecap="round"><g transform="translate(452.6640625 528.0856120984154) rotate(0 92.68359375 0)"><path d="M0 0 C37.35 0.18, 76.98 1.45, 185.37 0 M0 0 C55.31 -0.54, 111.71 -0.91, 185.37 0" stroke="#000" stroke-width="1" fill="none"></path></g></g><mask></mask><g stroke-linecap="round"><g transform="translate(452.6640625 577.0856120984154) rotate(0 92.68359375 0)"><path d="M0 0 C41.03 1.17, 79.98 0.33, 185.37 0 M0 0 C69.73 -1.11, 138.63 -2.11, 185.37 0" stroke="#000" stroke-width="1" fill="none"></path></g></g><mask></mask><g stroke-linecap="round"><g transform="translate(688.03125 528.0856120984154) rotate(0 89.71484375 0)"><path d="M0 0 C41.48 -0.85, 84.43 -0.97, 179.43 0 M0 0 C68.57 -1.4, 139.41 -0.94, 179.43 0" stroke="#000" stroke-width="1" fill="none"></path></g></g><mask></mask><g stroke-linecap="round"><g transform="translate(688.03125 577.0856120984154) rotate(0 89.71484375 0)"><path d="M0 0 C54.34 -0.22, 107.37 0.88, 179.43 0 M0 0 C63.41 0.86, 126.15 0.74, 179.43 0" stroke="#000" stroke-width="1" fill="none"></path></g></g><mask></mask><g stroke-linecap="round"><g transform="translate(971.110802510932 875.5470504000276) rotate(0 143.76171875 0)"><path d="M0 0 C73.91 1.19, 145.96 -0.06, 287.52 0 M0 0 C72.11 -0.02, 143.15 -0.24, 287.52 0" stroke="#000" stroke-width="1" fill="none"></path></g></g><mask></mask><g stroke-linecap="round"><g transform="translate(971.110802510932 924.5470504000277) rotate(0 143.76171875 0)"><path d="M0 0 C71.6 -1.26, 140.93 0.95, 287.52 0 M0 0 C84.66 0.02, 169.83 0.01, 287.52 0" stroke="#000" stroke-width="1" fill="none"></path></g></g><mask></mask><g stroke-linecap="round"><g transform="translate(928.7264510550467 59.31476618145052) rotate(0 161.578125 0)"><path d="M0 0 C96.76 2.73, 194.86 2.71, 323.16 0 M0 0 C91.57 0.72, 182.32 1.65, 323.16 0" stroke="#000" stroke-width="1" fill="none"></path></g></g><mask></mask><g stroke-linecap="round"><g transform="translate(928.7264510550467 108.31476618145052) rotate(0 161.578125 0)"><path d="M0 0 C70.69 -0.58, 141.28 -1.67, 323.16 0 M0 0 C81.44 1.7, 162.77 1.72, 323.16 0" stroke="#000" stroke-width="1" fill="none"></path></g></g><mask></mask><g stroke-linecap="round"><g transform="translate(960.3025004130468 518.5110610687909) rotate(0 142.6953125 0)"><path d="M0 0 C103.99 -1.6, 207.79 -0.81, 285.39 0 M0 0 C70.89 -1.18, 143.54 -2.04, 285.39 0" stroke="#000" stroke-width="1" fill="none"></path></g></g><mask></mask><g stroke-linecap="round"><g transform="translate(960.3025004130468 600.511061068791) rotate(0 142.6953125 0)"><path d="M0 0 C103.15 0.89, 206.98 -0.32, 285.39 0 M0 0 C110.34 -2.11, 220.33 -1.91, 285.39 0" stroke="#000" stroke-width="1" fill="none"></path></g></g><mask></mask><g stroke-linecap="round"><g transform="translate(426.578431414644 1186.2751281757205) rotate(0 110.3515625 0)"><path d="M0 0 C62.13 -1.45, 127.44 -2.42, 220.7 0 M0 0 C86.05 0.48, 171.89 -0.18, 220.7 0" stroke="#000" stroke-width="1" fill="none"></path></g></g><mask></mask><g stroke-linecap="round"><g transform="translate(426.578431414644 1235.2751281757205) rotate(0 110.3515625 0)"><path d="M0 0 C76.05 -0.9, 150.67 1.4, 220.7 0 M0 0 C60.96 -0.68, 121.29 -0.35, 220.7 0" stroke="#000" stroke-width="1" fill="none"></path></g></g><mask></mask><g stroke-linecap="round"><g transform="translate(920.730724088648 1194.035943425245) rotate(0 168.31640625 0)"><path d="M0 0 C88.1 2.69, 173.48 2.52, 336.63 0 M0 0 C101.21 1.46, 202.67 2.08, 336.63 0" stroke="#000" stroke-width="1" fill="none"></path></g></g><mask></mask><g stroke-linecap="round"><g transform="translate(920.730724088648 1210.035943425245) rotate(0 168.31640625 0)"><path d="M0 0 C67.67 -0.49, 136.03 -0.5, 336.63 0 M0 0 C75.36 1.21, 151.15 0.97, 336.63 0" stroke="#000" stroke-width="1" fill="none"></path></g></g><mask></mask><g stroke-linecap="round"><g transform="translate(83.46628978868512 589.0856120984154) rotate(0 166.579667008981 154.7942306403216)"><path d="M0.27 0.02 C55.77 51.51, 277.99 257.16, 333.41 308.68 M-1.05 -1.02 C54.28 50.62, 277.12 257.87, 332.6 309.74" stroke="#1e1e1e" stroke-width="2" fill="none"></path></g><g transform="translate(83.46628978868512 589.0856120984154) rotate(0 166.579667008981 154.7942306403216)"><path d="M332.29 310.19 L320.1 306.73 L325.75 294.43 L331.63 309.57" stroke="none" stroke-width="0" fill="#ffffff" fill-rule="evenodd"></path><path d="M332.6 309.74 C327.85 308.54, 321.92 306.21, 318.33 305.11 M332.6 309.74 C329 308.75, 324.5 307.47, 318.33 305.11 M318.33 305.11 C321.98 302.55, 324.93 298.59, 326.98 295.83 M318.33 305.11 C320.86 302.3, 323.08 300.39, 326.98 295.83 M326.98 295.83 C329.4 300.3, 332.35 306.77, 332.6 309.74 M326.98 295.83 C327.87 299.58, 330.19 303.34, 332.6 309.74 M332.6 309.74 C332.6 309.74, 332.6 309.74, 332.6 309.74 M332.6 309.74 C332.6 309.74, 332.6 309.74, 332.6 309.74" stroke="#1e1e1e" stroke-width="2" fill="none"></path></g></g><mask></mask><g stroke-linecap="round"><g transform="translate(306.8568445773644 589.0856120984154) rotate(0 60.40009414062024 105.3186642324386)"><path d="M0.25 -0.91 C20.28 34.12, 100.39 174.82, 120.43 210.19 M-1.07 1.23 C18.74 36.42, 99.18 176.82, 119.29 211.5" stroke="#1e1e1e" stroke-width="2" fill="none"></path></g><g transform="translate(306.8568445773644 589.0856120984154) rotate(0 60.40009414062024 105.3186642324386)"><path d="M121.06 213.12 L105.79 201.48 L117.03 196.38 L120.32 212.91" stroke="none" stroke-width="0" fill="#ffffff" fill-rule="evenodd"></path><path d="M119.29 211.5 C114.2 208.28, 110.82 205.63, 107.02 202.88 M119.29 211.5 C114.31 208.54, 110.93 206.04, 107.02 202.88 M107.02 202.88 C109.98 201.36, 111.38 200.12, 118 196.55 M107.02 202.88 C111.06 200.99, 115.38 198.03, 118 196.55 M118 196.55 C119.81 201.45, 117.94 204.35, 119.29 211.5 M118 196.55 C118.77 202.31, 119.34 206.26, 119.29 211.5 M119.29 211.5 C119.29 211.5, 119.29 211.5, 119.29 211.5 M119.29 211.5 C119.29 211.5, 119.29 211.5, 119.29 211.5" stroke="#1e1e1e" stroke-width="2" fill="none"></path></g></g><mask></mask><g stroke-linecap="round"><g transform="translate(542.5510507943377 589.0856120984154) rotate(0 -5.689519884132324 104.64837858783571)"><path d="M-0.37 -0.45 C-2.35 34.7, -9.85 174.96, -11.65 209.96 M1.64 -1.73 C-0.55 33.15, -10.5 172.74, -12.74 208.19" stroke="#1e1e1e" stroke-width="2" fill="none"></path></g><g transform="translate(542.5510507943377 589.0856120984154) rotate(0 -5.689519884132324 104.64837858783571)"><path d="M-13.96 206.79 L-19.11 194.02 L-4.46 196.46 L-13.46 206.47" stroke="none" stroke-width="0" fill="#ffffff" fill-rule="evenodd"></path><path d="M-12.74 208.19 C-14.92 203.34, -15.28 199.46, -18.14 194.19 M-12.74 208.19 C-13.98 204.37, -16.71 199.68, -18.14 194.19 M-18.14 194.19 C-14.09 194.53, -8.51 195.15, -5.49 195.05 M-18.14 194.19 C-14.44 194.07, -11.7 194.77, -5.49 195.05 M-5.49 195.05 C-8.08 198.59, -8.58 201.08, -12.74 208.19 M-5.49 195.05 C-7.36 199.1, -10.48 204.36, -12.74 208.19 M-12.74 208.19 C-12.74 208.19, -12.74 208.19, -12.74 208.19 M-12.74 208.19 C-12.74 208.19, -12.74 208.19, -12.74 208.19" stroke="#1e1e1e" stroke-width="2" fill="none"></path></g></g><mask></mask><g stroke-linecap="round"><g transform="translate(783.6041693604598 589.0856120984154) rotate(0 -64.18059950092743 107.87014387522623)"><path d="M-0.27 0.66 C-21.56 36.73, -106.63 180.1, -128.14 215.97 M1.79 -0.03 C-19.61 35.69, -107.51 177.75, -128.97 213.97" stroke="#1e1e1e" stroke-width="2" fill="none"></path></g><g transform="translate(783.6041693604598 589.0856120984154) rotate(0 -64.18059950092743 107.87014387522623)"><path d="M-129.94 213.8 L-126.3 200.47 L-117.22 203.93 L-128.89 215.4" stroke="none" stroke-width="0" fill="#ffffff" fill-rule="evenodd"></path><path d="M-128.97 213.97 C-127.64 210.24, -127.74 204.73, -127.33 199.06 M-128.97 213.97 C-129.16 209.73, -127.66 205.04, -127.33 199.06 M-127.33 199.06 C-123.35 201.34, -121.46 203, -116.49 205.64 M-127.33 199.06 C-123.64 201.68, -119.7 204.45, -116.49 205.64 M-116.49 205.64 C-120.47 207.7, -125.03 212.6, -128.97 213.97 M-116.49 205.64 C-121.32 208.98, -126.01 212.59, -128.97 213.97 M-128.97 213.97 C-128.97 213.97, -128.97 213.97, -128.97 213.97 M-128.97 213.97 C-128.97 213.97, -128.97 213.97, -128.97 213.97" stroke="#1e1e1e" stroke-width="2" fill="none"></path></g></g><mask></mask><g mask="url(#mask-jve97WTEsYMeUTj-I4E9A)" stroke-linecap="round"><g transform="translate(526.8235167038115 1049.6955862887255) rotate(0 -0.1316041699762991 35.03342249318571)"><path d="M-1.01 0.67 C-1.05 12.27, 0.21 59.15, 0.31 70.66 M0.67 -0.03 C0.46 11.74, -0.02 57.03, -0.33 68.84" stroke="#1e1e1e" stroke-width="2" fill="none"></path></g><g transform="translate(526.8235167038115 1049.6955862887255) rotate(0 -0.1316041699762991 35.03342249318571)"><path d="M-1.6 1.68 L4.22 13.75 L-8.66 13.78 L-2.51 -0.01" stroke="none" stroke-width="0" fill="#1e1e1e" fill-rule="evenodd"></path><path d="M-1.01 0.67 C2.25 6.16, 4.46 10.04, 5.59 14.14 M-1.01 0.67 C1 4.02, 2.64 8.41, 5.59 14.14 M5.59 14.14 C1.48 13.74, -2.24 15.11, -7.09 14.38 M5.59 14.14 C2.03 14.53, -0.33 14.85, -7.09 14.38 M-7.09 14.38 C-4.29 9.33, -1.21 2.7, -1.01 0.67 M-7.09 14.38 C-4.12 9.25, -2.68 3.89, -1.01 0.67 M-1.01 0.67 C-1.01 0.67, -1.01 0.67, -1.01 0.67 M-1.01 0.67 C-1.01 0.67, -1.01 0.67, -1.01 0.67" stroke="#1e1e1e" stroke-width="2" fill="none"></path></g><g transform="translate(526.8235167038115 1049.6955862887255) rotate(0 -0.1316041699762991 35.03342249318571)"><path d="M-0.93 69.86 L-7.8 54.75 L4.67 54.76 L-1.83 68.16" stroke="none" stroke-width="0" fill="#1e1e1e" fill-rule="evenodd"></path><path d="M-0.33 68.84 C-1.75 64.72, -3.98 59.09, -6.43 55.14 M-0.33 68.84 C-1.78 64.89, -3.6 61.88, -6.43 55.14 M-6.43 55.14 C-1.51 54.84, 3.8 56.2, 6.24 55.36 M-6.43 55.14 C-3.72 55.42, 0.21 55.74, 6.24 55.36 M6.24 55.36 C4.12 60.46, 2.48 63.99, -0.33 68.84 M6.24 55.36 C4.03 61.01, 0.43 66.48, -0.33 68.84 M-0.33 68.84 C-0.33 68.84, -0.33 68.84, -0.33 68.84 M-0.33 68.84 C-0.33 68.84, -0.33 68.84, -0.33 68.84" stroke="#1e1e1e" stroke-width="2" fill="none"></path></g></g><mask id="mask-jve97WTEsYMeUTj-I4E9A"><rect x="0" y="0" fill="#fff" width="627.0867250437641" height="1219.762431275097"></rect><rect x="492.9319409151831" y="1074.7290087819113" fill="#000" width="67.51994323730469" height="20" opacity="1"></rect></mask><g transform="translate(493.9600734867554 16.33058387171627) rotate(0 44.83995056152344 12.5)"><text x="0" y="17.52" font-family="Virgil, Segoe UI Emoji" font-size="20px" fill="#1e1e1e" text-anchor="start" style="white-space: pre;" direction="ltr" dominant-baseline="alphabetic">Customer</text></g><g transform="translate(415.3659760067776 72) rotate(0 83.60992431640625 12.5)"><text x="0" y="17.52" font-family="Virgil, Segoe UI Emoji" font-size="20px" fill="#1e1e1e" text-anchor="start" style="white-space: pre;" direction="ltr" dominant-baseline="alphabetic">+createArticles()</text></g><g transform="translate(415.3659760067776 105) rotate(0 75.84992980957031 12.5)"><text x="0" y="17.52" font-family="Virgil, Segoe UI Emoji" font-size="20px" fill="#1e1e1e" text-anchor="start" style="white-space: pre;" direction="ltr" dominant-baseline="alphabetic">+createVideos()</text></g><g transform="translate(415.3659760067776 138) rotate(0 80.71993255615234 12.5)"><text x="0" y="17.52" font-family="Virgil, Segoe UI Emoji" font-size="20px" fill="#1e1e1e" text-anchor="start" style="white-space: pre;" direction="ltr" dominant-baseline="alphabetic">+createImages()</text></g><g transform="translate(415.3659760067776 171) rotate(0 100.1799087524414 12.5)"><text x="0" y="17.52" font-family="Virgil, Segoe UI Emoji" font-size="20px" fill="#1e1e1e" text-anchor="start" style="white-space: pre;" direction="ltr" dominant-baseline="alphabetic">+createVoiceMemos()</text></g><g transform="translate(505.2606341988858 803.8823692740867) rotate(0 24.179977416992188 12.5)"><text x="0" y="17.52" font-family="Virgil, Segoe UI Emoji" font-size="20px" fill="#1e1e1e" text-anchor="start" style="white-space: pre;" direction="ltr" dominant-baseline="alphabetic">Fleek</text></g><g transform="translate(494.8718766086049 836.8823692740867) rotate(0 38.0899658203125 12.5)"><text x="0" y="17.52" font-family="Virgil, Segoe UI Emoji" font-size="20px" fill="#1e1e1e" text-anchor="start" style="white-space: pre;" direction="ltr" dominant-baseline="alphabetic">Content</text></g><g transform="translate(436.1570328586049 881.8823692740867) rotate(0 60.73994445800781 12.5)"><text x="0" y="17.52" font-family="Virgil, Segoe UI Emoji" font-size="20px" fill="#1e1e1e" text-anchor="start" style="white-space: pre;" direction="ltr" dominant-baseline="alphabetic">+String title</text></g><g transform="translate(436.1570328586049 914.8823692740867) rotate(0 90.22991180419922 12.5)"><text x="0" y="17.52" font-family="Virgil, Segoe UI Emoji" font-size="20px" fill="#1e1e1e" text-anchor="start" style="white-space: pre;" direction="ltr" dominant-baseline="alphabetic">+String description</text></g><g transform="translate(436.1570328586049 947.8823692740867) rotate(0 90.80992126464844 12.5)"><text x="0" y="17.52" font-family="Virgil, Segoe UI Emoji" font-size="20px" fill="#1e1e1e" text-anchor="start" style="white-space: pre;" direction="ltr" dominant-baseline="alphabetic">+Date publishedOn</text></g><g transform="translate(436.1570328586049 980.8823692740867) rotate(0 79.97993469238281 12.5)"><text x="0" y="17.52" font-family="Virgil, Segoe UI Emoji" font-size="20px" fill="#1e1e1e" text-anchor="start" style="white-space: pre;" direction="ltr" dominant-baseline="alphabetic">+File contentFile</text></g><g transform="translate(52.86328125 492.08561209841537) rotate(0 31.819969177246094 12.5)"><text x="0" y="17.52" font-family="Virgil, Segoe UI Emoji" font-size="20px" fill="#1e1e1e" text-anchor="start" style="white-space: pre;" direction="ltr" dominant-baseline="alphabetic">Article</text></g><g transform="translate(17.5 537.0856120984154) rotate(0 65.69994354248047 12.5)"><text x="0" y="17.52" font-family="Virgil, Segoe UI Emoji" font-size="20px" fill="#1e1e1e" text-anchor="start" style="white-space: pre;" direction="ltr" dominant-baseline="alphabetic">+File textFile</text></g><g transform="translate(280.6171875 492.08561209841537) rotate(0 24.059974670410156 12.5)"><text x="0" y="17.52" font-family="Virgil, Segoe UI Emoji" font-size="20px" fill="#1e1e1e" text-anchor="start" style="white-space: pre;" direction="ltr" dominant-baseline="alphabetic">Video</text></g><g transform="translate(231.6484375 537.0856120984154) rotate(0 67.42993927001953 12.5)"><text x="0" y="17.52" font-family="Virgil, Segoe UI Emoji" font-size="20px" fill="#1e1e1e" text-anchor="start" style="white-space: pre;" direction="ltr" dominant-baseline="alphabetic">+File videoFile</text></g><g transform="translate(511.0078125 492.08561209841537) rotate(0 28.929977416992188 12.5)"><text x="0" y="17.52" font-family="Virgil, Segoe UI Emoji" font-size="20px" fill="#1e1e1e" text-anchor="start" style="white-space: pre;" direction="ltr" dominant-baseline="alphabetic">Image</text></g><g transform="translate(460.1640625 537.0856120984154) rotate(0 68.97994232177734 12.5)"><text x="0" y="17.52" font-family="Virgil, Segoe UI Emoji" font-size="20px" fill="#1e1e1e" text-anchor="start" style="white-space: pre;" direction="ltr" dominant-baseline="alphabetic">+File imageFile</text></g><g transform="translate(712.12109375 492.08561209841537) rotate(0 48.38995361328125 12.5)"><text x="0" y="17.52" font-family="Virgil, Segoe UI Emoji" font-size="20px" fill="#1e1e1e" text-anchor="start" style="white-space: pre;" direction="ltr" dominant-baseline="alphabetic">VoiceMemo</text></g><g transform="translate(695.53125 537.0856120984154) rotate(0 69.07994079589844 12.5)"><text x="0" y="17.52" font-family="Virgil, Segoe UI Emoji" font-size="20px" fill="#1e1e1e" text-anchor="start" style="white-space: pre;" direction="ltr" dominant-baseline="alphabetic">+File audioFile</text></g><g transform="translate(1057.294396260932 839.5470504000276) rotate(0 47.18995666503906 12.5)"><text x="0" y="17.52" font-family="Virgil, Segoe UI Emoji" font-size="20px" fill="#1e1e1e" text-anchor="start" style="white-space: pre;" direction="ltr" dominant-baseline="alphabetic">NewsPage</text></g><g transform="translate(978.610802510932 884.5470504000276) rotate(0 121.59989929199219 12.5)"><text x="0" y="17.52" font-family="Virgil, Segoe UI Emoji" font-size="20px" fill="#1e1e1e" text-anchor="start" style="white-space: pre;" direction="ltr" dominant-baseline="alphabetic">+List&lt;Content&gt; contents</text></g><g transform="translate(978.610802510932 929.5470504000277) rotate(0 108.0099105834961 12.5)"><text x="0" y="17.52" font-family="Virgil, Segoe UI Emoji" font-size="20px" fill="#1e1e1e" text-anchor="start" style="white-space: pre;" direction="ltr" dominant-baseline="alphabetic">+addContent(Content)</text></g><g transform="translate(1039.2577010550467 23.314766181450523) rotate(0 48.40997314453125 12.5)"><text x="0" y="17.52" font-family="Virgil, Segoe UI Emoji" font-size="20px" fill="#1e1e1e" text-anchor="start" style="white-space: pre;" direction="ltr" dominant-baseline="alphabetic">DataDAO</text></g><g transform="translate(936.2264510550467 68.31476618145052) rotate(0 128.45986938476562 12.5)"><text x="0" y="17.52" font-family="Virgil, Segoe UI Emoji" font-size="20px" fill="#1e1e1e" text-anchor="start" style="white-space: pre;" direction="ltr" dominant-baseline="alphabetic">+List&lt;Proposal&gt; proposals</text></g><g transform="translate(936.2264510550467 113.31476618145052) rotate(0 130.89987182617188 12.5)"><text x="0" y="17.52" font-family="Virgil, Segoe UI Emoji" font-size="20px" fill="#1e1e1e" text-anchor="start" style="white-space: pre;" direction="ltr" dominant-baseline="alphabetic">+voteOnProposal(Proposal)</text></g><g transform="translate(936.2264510550467 146.31476618145052) rotate(0 135.19989013671875 12.5)"><text x="0" y="17.52" font-family="Virgil, Segoe UI Emoji" font-size="20px" fill="#1e1e1e" text-anchor="start" style="white-space: pre;" direction="ltr" dominant-baseline="alphabetic">+createProposal(NewsPage)</text></g><g transform="translate(1053.1618754130468 482.5110610687909) rotate(0 41.64995574951172 12.5)"><text x="0" y="17.52" font-family="Virgil, Segoe UI Emoji" font-size="20px" fill="#1e1e1e" text-anchor="start" style="white-space: pre;" direction="ltr" dominant-baseline="alphabetic">Proposal</text></g><g transform="translate(967.8025004130468 527.5110610687909) rotate(0 103.89990234375 12.5)"><text x="0" y="17.52" font-family="Virgil, Segoe UI Emoji" font-size="20px" fill="#1e1e1e" text-anchor="start" style="white-space: pre;" direction="ltr" dominant-baseline="alphabetic">+String proposalText</text></g><g transform="translate(967.8025004130468 560.5110610687909) rotate(0 51.0799560546875 12.5)"><text x="0" y="17.52" font-family="Virgil, Segoe UI Emoji" font-size="20px" fill="#1e1e1e" text-anchor="start" style="white-space: pre;" direction="ltr" dominant-baseline="alphabetic">+int votes</text></g><g transform="translate(967.8025004130468 605.511061068791) rotate(0 117.59988403320312 12.5)"><text x="0" y="17.52" font-family="Virgil, Segoe UI Emoji" font-size="20px" fill="#1e1e1e" text-anchor="start" style="white-space: pre;" direction="ltr" dominant-baseline="alphabetic">+bool executeProposal()</text></g><g transform="translate(512.429993914644 1150.2751281757205) rotate(0 23.879981994628906 12.5)"><text x="0" y="17.52" font-family="Virgil, Segoe UI Emoji" font-size="20px" fill="#1e1e1e" text-anchor="start" style="white-space: pre;" direction="ltr" dominant-baseline="alphabetic">IPFS</text></g><g transform="translate(434.078431414644 1195.2751281757205) rotate(0 52.049957275390625 12.5)"><text x="0" y="17.52" font-family="Virgil, Segoe UI Emoji" font-size="20px" fill="#1e1e1e" text-anchor="start" style="white-space: pre;" direction="ltr" dominant-baseline="alphabetic">+String cid</text></g><g transform="translate(434.078431414644 1240.2751281757205) rotate(0 77.76992797851562 12.5)"><text x="0" y="17.52" font-family="Virgil, Segoe UI Emoji" font-size="20px" fill="#1e1e1e" text-anchor="start" style="white-space: pre;" direction="ltr" dominant-baseline="alphabetic">+serveContent()</text></g><g transform="translate(1042.574474088648 1158.035943425245) rotate(0 33.44996643066406 12.5)"><text x="0" y="17.52" font-family="Virgil, Segoe UI Emoji" font-size="20px" fill="#1e1e1e" text-anchor="start" style="white-space: pre;" direction="ltr" dominant-baseline="alphabetic">Filecoin</text></g><g transform="translate(928.230724088648 1215.035943425245) rotate(0 137.82986450195312 12.5)"><text x="0" y="17.52" font-family="Virgil, Segoe UI Emoji" font-size="20px" fill="#1e1e1e" text-anchor="start" style="white-space: pre;" direction="ltr" dominant-baseline="alphabetic">+storeWithProvider(Content)</text></g><g transform="translate(928.230724088648 1248.035943425245) rotate(0 89.23991394042969 12.5)"><text x="0" y="17.52" font-family="Virgil, Segoe UI Emoji" font-size="20px" fill="#1e1e1e" text-anchor="start" style="white-space: pre;" direction="ltr" dominant-baseline="alphabetic">+ensureLongevity()</text></g><g transform="translate(1198.3879948721483 466.0112976018952) rotate(0 2.167999267578125 10)"><text x="0" y="14.016" font-family="Virgil, Segoe UI Emoji" font-size="16px" fill="#1e1e1e" text-anchor="start" style="white-space: pre;" direction="ltr" dominant-baseline="alphabetic">1</text></g><g transform="translate(492.9319409151831 1074.7290087819113) rotate(0 33.72070211393111 10.28080426287837)"><text x="33.759971618652344" y="14.016" font-family="Virgil, Segoe UI Emoji" font-size="16px" fill="#1e1e1e" text-anchor="middle" style="white-space: pre;" direction="ltr" dominant-baseline="alphabetic">storedIn</text></g><g mask="url(#mask-uLEzDYynsjc6tUQpQQnZh)" stroke-linecap="round"><g transform="translate(1093.5502786243837 649.6793504448599) rotate(0 0.20692681743571484 83.68009601534493)"><path d="M0.26 -0.45 C0.69 10.46, 1.46 38.05, 1.55 66.14 C1.63 94.24, 1.14 151.22, 0.76 168.12 M-1.06 -1.73 C-0.59 8.75, 0.96 36.26, 1.19 64.24 C1.43 92.23, 0.7 148.76, 0.34 166.17" stroke="#1e1e1e" stroke-width="2" fill="none"></path></g><g transform="translate(1093.5502786243837 649.6793504448599) rotate(0 0.20692681743571484 83.68009601534493)"><path d="M0.25 168.08 L-7.41 153.62 L6.91 153.81 L1.26 166.59" stroke="none" stroke-width="0" fill="#1e1e1e" fill-rule="evenodd"></path><path d="M0.34 166.17 C-1.59 164.71, -1.79 161.22, -5.78 152.48 M0.34 166.17 C-1.76 161.43, -3.37 155.6, -5.78 152.48 M-5.78 152.48 C-0.3 153.86, 4.4 152.21, 6.89 152.68 M-5.78 152.48 C-2.9 153.1, -0.92 153.15, 6.89 152.68 M6.89 152.68 C4.66 157.01, 3.74 158.37, 0.34 166.17 M6.89 152.68 C4.03 158.12, 1.88 163.27, 0.34 166.17 M0.34 166.17 C0.34 166.17, 0.34 166.17, 0.34 166.17 M0.34 166.17 C0.34 166.17, 0.34 166.17, 0.34 166.17" stroke="#1e1e1e" stroke-width="2" fill="none"></path></g></g><mask id="mask-uLEzDYynsjc6tUQpQQnZh"><rect x="0" y="0" fill="#fff" width="1193.9641322592552" height="917.0395424755498"></rect><rect x="1075.914144466286" y="702.8949425791329" fill="#000" width="36.0999755859375" height="25" opacity="1"></rect></mask><g transform="translate(1075.914144466286 702.8949425791329) rotate(0 17.88124207934652 29.974942011737454)"><text x="18.04998779296875" y="17.52" font-family="Virgil, Segoe UI Emoji" font-size="20px" fill="#1e1e1e" text-anchor="middle" style="white-space: pre;" direction="ltr" dominant-baseline="alphabetic">add</text></g><g mask="url(#mask-Bkga9ReQAZUPccm0yl2x_)" stroke-linecap="round"><g transform="translate(1084.0539659837373 192.14536596507776) rotate(0 2.3073444996309718 135.90089606494672)"><path d="M0.51 0.77 C1.33 46.13, 3.83 225.76, 4.63 271.01 M-0.69 0.12 C0 45.72, 2.76 227.13, 3.68 272.13" stroke="#1e1e1e" stroke-width="2" fill="none"></path></g><g transform="translate(1084.0539659837373 192.14536596507776) rotate(0 2.3073444996309718 135.90089606494672)"><path d="M4.12 273.58 L-2.24 257.59 L11.35 260.34 L3.04 273.25" stroke="none" stroke-width="0" fill="#1e1e1e" fill-rule="evenodd"></path><path d="M3.68 272.13 C2.96 268.47, -0.79 265.61, -2.89 258.65 M3.68 272.13 C1.87 267.15, -1.27 262.78, -2.89 258.65 M-2.89 258.65 C1.73 258.2, 5.11 258.91, 9.79 258.43 M-2.89 258.65 C1.44 258.87, 6.5 258.65, 9.79 258.43 M9.79 258.43 C6.91 264.13, 4.81 267.51, 3.68 272.13 M9.79 258.43 C7.81 261.93, 6.56 265.26, 3.68 272.13 M3.68 272.13 C3.68 272.13, 3.68 272.13, 3.68 272.13 M3.68 272.13 C3.68 272.13, 3.68 272.13, 3.68 272.13" stroke="#1e1e1e" stroke-width="2" fill="none"></path></g></g><mask id="mask-Bkga9ReQAZUPccm0yl2x_"><rect x="0" y="0" fill="#fff" width="1188.6686549829992" height="563.9471580949712"></rect><rect x="1047.9813513769236" y="315.54626203002454" fill="#000" width="76.75991821289062" height="25" opacity="1"></rect></mask><g transform="translate(1047.9813513769232 315.54626203002454) rotate(0 38.042496179770296 12.728293030820737)"><text x="38.37995910644531" y="17.52" font-family="Virgil, Segoe UI Emoji" font-size="20px" fill="#1e1e1e" text-anchor="middle" style="white-space: pre;" direction="ltr" dominant-baseline="alphabetic">execute</text></g><g mask="url(#mask-j2mSUAqQlU2Q3SgxXwIC_)" stroke-linecap="round"><g transform="translate(688.7888944363544 93.27100990963606) rotate(0 107.69341031677345 -2.905632498895102)"><path d="M-1.08 -0.46 C18.45 -1, 80.19 -1.5, 116.44 -2.55 C152.69 -3.6, 199.97 -6.21, 216.42 -6.75 M0.56 -1.75 C19.94 -2.72, 79.27 -3.73, 115.21 -4.43 C151.15 -5.13, 199.52 -5.89, 216.2 -5.92" stroke="#1e1e1e" stroke-width="2" fill="none"></path></g><g transform="translate(688.7888944363544 93.27100990963606) rotate(0 107.69341031677345 -2.905632498895102)"><path d="M214.57 -4.58 L201.52 2.48 L200.74 -13.17 L214.57 -6.31" stroke="none" stroke-width="0" fill="#1e1e1e" fill-rule="evenodd"></path><path d="M216.2 -5.92 C212.38 -5.14, 210.25 -1.61, 202.67 0.54 M216.2 -5.92 C213.62 -5.02, 210.3 -3.22, 202.67 0.54 M202.67 0.54 C203.06 -2.63, 201.64 -5.89, 202.55 -12.14 M202.67 0.54 C202.1 -3.52, 202.48 -6.42, 202.55 -12.14 M202.55 -12.14 C207.23 -11.5, 210.97 -7.93, 216.2 -5.92 M202.55 -12.14 C205.77 -10.37, 208.23 -9.46, 216.2 -5.92 M216.2 -5.92 C216.2 -5.92, 216.2 -5.92, 216.2 -5.92 M216.2 -5.92 C216.2 -5.92, 216.2 -5.92, 216.2 -5.92" stroke="#1e1e1e" stroke-width="2" fill="none"></path></g></g><mask id="mask-j2mSUAqQlU2Q3SgxXwIC_"><rect x="0" y="0" fill="#fff" width="1004.1757150699013" height="199.08227490742627"></rect><rect x="766.7577042391454" y="77.76310842072894" fill="#000" width="77.99993896484375" height="25" opacity="1"></rect></mask><g transform="translate(766.7577042391454 77.76310842072894) rotate(0 29.705419265064393 11.90420246075297)"><text x="38.999969482421875" y="17.52" font-family="Virgil, Segoe UI Emoji" font-size="20px" fill="#1e1e1e" text-anchor="middle" style="white-space: pre;" direction="ltr" dominant-baseline="alphabetic">Create </text></g><g mask="url(#mask-BijquKxn_LQr1m79zPpDQ)" stroke-linecap="round"><g transform="translate(1655.5967629930005 603.67906657762) rotate(0 -183.81703779347572 144.24897562666376)"><path d="M1.13 -0.36 C-26.87 22.58, -106.27 89.15, -167.91 137.12 C-229.54 185.09, -335.32 262.31, -368.68 287.47 M0.27 -1.59 C-27.88 21.5, -107.57 89.8, -168.67 138.11 C-229.77 186.41, -333.11 263.1, -366.33 288.25" stroke="#1e1e1e" stroke-width="2" fill="none"></path></g><g transform="translate(1655.5967629930005 603.67906657762) rotate(0 -183.81703779347572 144.24897562666376)"><path d="M-367.52 286.6 L-357.8 273.57 L-351.17 285.27 L-364.37 290.16" stroke="none" stroke-width="0" fill="#1e1e1e" fill-rule="evenodd"></path><path d="M-366.33 288.25 C-364.52 284.49, -363.19 278.64, -359.27 275.01 M-366.33 288.25 C-364.09 284.81, -363.85 282.23, -359.27 275.01 M-359.27 275.01 C-357.02 277.48, -355.69 281.6, -351.65 285.15 M-359.27 275.01 C-357.17 278.34, -353.47 282.35, -351.65 285.15 M-351.65 285.15 C-355.39 285.9, -359.28 285.49, -366.33 288.25 M-351.65 285.15 C-357.45 285.76, -362.25 287.47, -366.33 288.25 M-366.33 288.25 C-366.33 288.25, -366.33 288.25, -366.33 288.25 M-366.33 288.25 C-366.33 288.25, -366.33 288.25, -366.33 288.25" stroke="#1e1e1e" stroke-width="2" fill="none"></path></g></g><mask id="mask-BijquKxn_LQr1m79zPpDQ"><rect x="0" y="0" fill="#fff" width="2123.230838579952" height="992.1770178309475"></rect><rect x="1443.2574977937097" y="729.3460497230265" fill="#000" width="88.17988586425781" height="25" opacity="1"></rect></mask><g transform="translate(1443.2574977937102 729.3460497230265) rotate(0 28.567557038797077 17.660672322976893)"><text x="44.089942932128906" y="17.52" font-family="Virgil, Segoe UI Emoji" font-size="20px" fill="#1e1e1e" text-anchor="middle" style="white-space: pre;" direction="ltr" dominant-baseline="alphabetic">subsribes</text></g><g stroke-linecap="round"><g transform="translate(385.5374947701057 217.08085771176002) rotate(0 -159.7891305986127 126.95738937343492)"><path d="M-0.09 -0.89 C-53.4 41.38, -266.08 211.02, -319.48 253.41 M-1.6 1.25 C-55.09 43.71, -267.63 212.48, -320.38 254.68" stroke="#1e1e1e" stroke-width="2" fill="none"></path></g><g transform="translate(385.5374947701057 217.08085771176002) rotate(0 -159.7891305986127 126.95738937343492)"><path d="M-318.89 256.56 L-311.79 239.47 L-304.52 249.95 L-320.3 256.66" stroke="none" stroke-width="0" fill="#1e1e1e" fill-rule="evenodd"></path><path d="M-320.38 254.68 C-319.26 250.36, -316.57 244.63, -313.7 241.25 M-320.38 254.68 C-319 251.26, -317.75 247.1, -313.7 241.25 M-313.7 241.25 C-311.15 244.81, -308.83 246.78, -305.8 251.17 M-313.7 241.25 C-311.43 245.1, -308.49 248.08, -305.8 251.17 M-305.8 251.17 C-310.73 253.03, -314.42 253.35, -320.38 254.68 M-305.8 251.17 C-309.72 252.57, -314.87 253.73, -320.38 254.68 M-320.38 254.68 C-320.38 254.68, -320.38 254.68, -320.38 254.68 M-320.38 254.68 C-320.38 254.68, -320.38 254.68, -320.38 254.68" stroke="#1e1e1e" stroke-width="2" fill="none"></path></g></g><mask></mask><g stroke-linecap="round"><g transform="translate(456.86652643272146 226.8538343394829) rotate(0 -77.54329376729697 125.25198787099913)"><path d="M-0.94 -1.07 C-27.02 40.77, -129.84 209.36, -155.69 251.4 M0.76 0.99 C-24.98 42.46, -127.56 208.38, -153.29 249.76" stroke="#1e1e1e" stroke-width="2" fill="none"></path></g><g transform="translate(456.86652643272146 226.8538343394829) rotate(0 -77.54329376729697 125.25198787099913)"><path d="M-154.98 249.05 L-150.96 234.94 L-141.55 240.86 L-154.35 249.75" stroke="none" stroke-width="0" fill="#1e1e1e" fill-rule="evenodd"></path><path d="M-153.29 249.76 C-154.03 243.62, -150.93 237.8, -151.52 234.86 M-153.29 249.76 C-152.51 243.84, -151.89 239.6, -151.52 234.86 M-151.52 234.86 C-148.41 236.99, -145.95 239.7, -140.74 241.54 M-151.52 234.86 C-148.73 236.61, -146.03 238.57, -140.74 241.54 M-140.74 241.54 C-142.32 243.45, -145.34 246.16, -153.29 249.76 M-140.74 241.54 C-144.31 244, -149.08 246.91, -153.29 249.76 M-153.29 249.76 C-153.29 249.76, -153.29 249.76, -153.29 249.76 M-153.29 249.76 C-153.29 249.76, -153.29 249.76, -153.29 249.76" stroke="#1e1e1e" stroke-width="2" fill="none"></path></g></g><mask></mask><g stroke-linecap="round"><g transform="translate(549.6544410281931 227.34682770212623) rotate(0 -4.535003097677418 123.03274339150056)"><path d="M0.25 -0.86 C-1.1 28.95, -6.45 137.16, -8 178.14 C-9.55 219.13, -9.01 233.86, -9.07 245.05 M-1.08 1.3 C-2.09 30.82, -4.42 135.55, -5.88 176.31 C-7.34 217.07, -9.52 234.22, -9.84 245.84" stroke="#1e1e1e" stroke-width="2" fill="none"></path></g><g transform="translate(549.6544410281931 227.34682770212623) rotate(0 -4.535003097677418 123.03274339150056)"><path d="M-10.94 245.18 L-15.4 233.2 L-3.5 232.11 L-8.44 247.74" stroke="none" stroke-width="0" fill="#1e1e1e" fill-rule="evenodd"></path><path d="M-9.84 245.84 C-12.55 240.13, -12.5 237.24, -15.39 231.9 M-9.84 245.84 C-11.61 243.13, -12.39 239.55, -15.39 231.9 M-15.39 231.9 C-11.86 232.74, -9.87 232.26, -2.73 232.63 M-15.39 231.9 C-12.67 232.22, -8.87 231.89, -2.73 232.63 M-2.73 232.63 C-4.47 236.67, -7.37 241.99, -9.84 245.84 M-2.73 232.63 C-5.46 236.42, -6.97 240.94, -9.84 245.84 M-9.84 245.84 C-9.84 245.84, -9.84 245.84, -9.84 245.84 M-9.84 245.84 C-9.84 245.84, -9.84 245.84, -9.84 245.84" stroke="#1e1e1e" stroke-width="2" fill="none"></path></g></g><mask></mask><g stroke-linecap="round"><g transform="translate(643.5227086184332 228.96952780840513) rotate(0 51.207845860281395 123.83201623284651)"><path d="M0.44 -0.39 C17.59 41.25, 85.34 207.36, 102.49 248.82 M-0.78 -1.64 C16.25 39.78, 84.27 205.96, 101.59 247.3" stroke="#1e1e1e" stroke-width="2" fill="none"></path></g><g transform="translate(643.5227086184332 228.96952780840513) rotate(0 51.207845860281395 123.83201623284651)"><path d="M99.82 248.36 L88.63 237.15 L100.92 232.61 L102.96 247.47" stroke="none" stroke-width="0" fill="#1e1e1e" fill-rule="evenodd"></path><path d="M101.59 247.3 C98.22 244.72, 97.18 243.12, 90.54 237.16 M101.59 247.3 C96.93 243.53, 92.96 240.67, 90.54 237.16 M90.54 237.16 C92.79 236.46, 95.87 233.68, 102.25 232.32 M90.54 237.16 C92.91 236.58, 95.57 234.24, 102.25 232.32 M102.25 232.32 C103.56 236.05, 103.16 237.3, 101.59 247.3 M102.25 232.32 C101.43 236.25, 101.53 239.95, 101.59 247.3 M101.59 247.3 C101.59 247.3, 101.59 247.3, 101.59 247.3 M101.59 247.3 C101.59 247.3, 101.59 247.3, 101.59 247.3" stroke="#1e1e1e" stroke-width="2" fill="none"></path></g></g><mask></mask><g mask="url(#mask-2GXvQh5TmJN-Dxpv5RiGH)" stroke-linecap="round"><g transform="translate(676.5904866479887 899.2436223804507) rotate(0 134.5123718702721 -1.5383324869475246)"><path d="M0.51 -0.77 C45.46 -1.44, 224.04 -3.43, 268.67 -3.74 M-0.69 1.44 C44.18 0.9, 222.89 -1.53, 267.54 -2.55" stroke="#1e1e1e" stroke-width="2" fill="none"></path></g><g transform="translate(676.5904866479887 899.2436223804507) rotate(0 134.5123718702721 -1.5383324869475246)"><path d="M-1.33 0.45 L13.78 -5.57 L15.75 5.64 L2.42 -1.12" stroke="none" stroke-width="0" fill="#1e1e1e" fill-rule="evenodd"></path><path d="M0.51 -0.77 C2.36 -2.63, 5.34 -4.43, 14.03 -7.27 M0.51 -0.77 C5.07 -2.51, 10.14 -5.65, 14.03 -7.27 M14.03 -7.27 C13.37 -3.63, 15.04 -1.53, 14.17 5.41 M14.03 -7.27 C13.92 -3.54, 13.92 0.12, 14.17 5.41 M14.17 5.41 C9.48 4.88, 4.36 1.88, 0.51 -0.77 M14.17 5.41 C9.85 3.91, 4.75 1.04, 0.51 -0.77 M0.51 -0.77 C0.51 -0.77, 0.51 -0.77, 0.51 -0.77 M0.51 -0.77 C0.51 -0.77, 0.51 -0.77, 0.51 -0.77" stroke="#1e1e1e" stroke-width="2" fill="none"></path></g><g transform="translate(676.5904866479887 899.2436223804507) rotate(0 134.5123718702721 -1.5383324869475246)"><path d="M265.71 -1.33 L253.81 5.73 L255.42 -8.42 L269.46 -2.9" stroke="none" stroke-width="0" fill="#1e1e1e" fill-rule="evenodd"></path><path d="M267.54 -2.55 C263.76 -1.55, 261.06 -0.6, 254.06 4.02 M267.54 -2.55 C263.04 -0.13, 258.99 1.15, 254.06 4.02 M254.06 4.02 C253.12 1.27, 254.69 -3.04, 253.84 -8.65 M254.06 4.02 C254.06 0.6, 253.96 -2.91, 253.84 -8.65 M253.84 -8.65 C258.38 -5.23, 262.39 -4.13, 267.54 -2.55 M253.84 -8.65 C259.51 -5.89, 264.3 -4.33, 267.54 -2.55 M267.54 -2.55 C267.54 -2.55, 267.54 -2.55, 267.54 -2.55 M267.54 -2.55 C267.54 -2.55, 267.54 -2.55, 267.54 -2.55" stroke="#1e1e1e" stroke-width="2" fill="none"></path></g></g><mask id="mask-2GXvQh5TmJN-Dxpv5RiGH"><rect x="0" y="0" fill="#fff" width="1045.6152303885328" height="1002.3202873543457"></rect><rect x="771.1628942238272" y="885.2052898935032" fill="#000" width="79.87992858886719" height="25" opacity="1"></rect></mask><g transform="translate(771.1628942238272 885.2052898935032) rotate(0 39.42049452422202 12.884722109753639)"><text x="39.939964294433594" y="17.52" font-family="Virgil, Segoe UI Emoji" font-size="20px" fill="#1e1e1e" text-anchor="middle" style="white-space: pre;" direction="ltr" dominant-baseline="alphabetic">Request</text></g><g mask="url(#mask-q_wQQPXoXW2CZ-oFyuIer)" stroke-linecap="round"><g transform="translate(1104.6741720818018 1124.4342956028963) rotate(0 0.8537024753154583 -69.22065527690476)"><path d="M-0.88 0.48 C-0.45 -22.49, 1.4 -115.42, 1.64 -138.5 M0.86 -0.32 C1.2 -23.03, 0.32 -113.7, 0.66 -136.99" stroke="#1e1e1e" stroke-width="2" fill="none"></path></g><g transform="translate(1104.6741720818018 1124.4342956028963) rotate(0 0.8537024753154583 -69.22065527690476)"><path d="M1.25 -135.37 L7.83 -121.48 L-5.8 -124.91 L-0.49 -136.98" stroke="none" stroke-width="0" fill="#1e1e1e" fill-rule="evenodd"></path><path d="M0.66 -136.99 C2.6 -133.96, 3.36 -132.2, 6.98 -123.39 M0.66 -136.99 C2.93 -132.76, 5.03 -128.41, 6.98 -123.39 M6.98 -123.39 C4.93 -122.79, 2.53 -123.87, -5.7 -123.41 M6.98 -123.39 C2.02 -123.04, -1.77 -123.48, -5.7 -123.41 M-5.7 -123.41 C-2.83 -127.54, -2.98 -130.98, 0.66 -136.99 M-5.7 -123.41 C-3.9 -126.92, -2.14 -129.5, 0.66 -136.99 M0.66 -136.99 C0.66 -136.99, 0.66 -136.99, 0.66 -136.99 M0.66 -136.99 C0.66 -136.99, 0.66 -136.99, 0.66 -136.99" stroke="#1e1e1e" stroke-width="2" fill="none"></path></g></g><mask id="mask-q_wQQPXoXW2CZ-oFyuIer"><rect x="0" y="0" fill="#fff" width="1206.3815770324327" height="1362.8756061567058"></rect><rect x="1006.5379682460825" y="1017.7136403259916" fill="#000" width="197.9798126220703" height="75" opacity="1"></rect></mask><g transform="translate(1006.5379682460825 1017.7136403259917) rotate(0 98.51809940077351 37.708634766563776)"><text x="98.98990631103516" y="17.52" font-family="Virgil, Segoe UI Emoji" font-size="20px" fill="#1e1e1e" text-anchor="middle" style="white-space: pre;" direction="ltr" dominant-baseline="alphabetic">Proof of Replication</text><text x="98.98990631103516" y="42.519999999999996" font-family="Virgil, Segoe UI Emoji" font-size="20px" fill="#1e1e1e" text-anchor="middle" style="white-space: pre;" direction="ltr" dominant-baseline="alphabetic">+</text><text x="98.98990631103516" y="67.52" font-family="Virgil, Segoe UI Emoji" font-size="20px" fill="#1e1e1e" text-anchor="middle" style="white-space: pre;" direction="ltr" dominant-baseline="alphabetic">Proof of Spacetime</text></g><g stroke-linecap="round" transform="translate(1554.3731081749856 467.030173738901) rotate(0 115.1013661946863 60.69457955527815)"><path d="M0 0 C49.23 -1.23, 98.34 -2.27, 230.2 0 M0 0 C52.02 -0.29, 102.36 0.25, 230.2 0 M230.2 0 C230.4 36.96, 231.51 76.16, 230.2 121.39 M230.2 0 C229.73 33.59, 231.25 66.14, 230.2 121.39 M230.2 121.39 C154.25 121.4, 80.12 124.46, 0 121.39 M230.2 121.39 C151.21 119.56, 73.11 120.51, 0 121.39 M0 121.39 C0.94 75.05, 2.29 31.45, 0 0 M0 121.39 C1.04 94.76, 0.96 70.05, 0 0" stroke="#1e1e1e" stroke-width="2" fill="none"></path></g><g stroke-linecap="round"><g transform="translate(1554.3731081749856 508.030173738901) rotate(0 112.26792722344226 0)"><path d="M0 0 C76.83 -1, 150.08 -0.67, 224.54 0 M0 0 C67.78 0.8, 136.52 1.2, 224.54 0" stroke="#000" stroke-width="1" fill="none"></path></g></g><mask></mask><g transform="translate(1578.4629519249856 472.030173738901) rotate(0 44.439971923828125 12.5)"><text x="0" y="17.52" font-family="Virgil, Segoe UI Emoji" font-size="20px" fill="#1e1e1e" text-anchor="start" style="white-space: pre;" direction="ltr" dominant-baseline="alphabetic">End User</text></g><g transform="translate(1561.8731081749856 549.2663303832586) rotate(0 109.12989044189453 12.5)"><text x="0" y="17.52" font-family="Virgil, Segoe UI Emoji" font-size="20px" fill="#1e1e1e" text-anchor="start" style="white-space: pre;" direction="ltr" dominant-baseline="alphabetic">+subscribeToContent()</text></g><g transform="translate(1570.7496262727846 521.0894018063315) rotate(0 35.60997009277344 12.5)"><text x="0" y="17.52" font-family="Virgil, Segoe UI Emoji" font-size="20px" fill="#1e1e1e" text-anchor="start" style="white-space: pre;" direction="ltr" dominant-baseline="alphabetic">+Vote()</text></g><g mask="url(#mask-9YmApCFzT9_i-1qkQktJM)" stroke-linecap="round"><g transform="translate(1272.1057307367632 153.78351109150435) rotate(0 187.01228588727895 148.96885199779894)"><path d="M1.1 -1.16 C63.55 48.42, 312.22 247.96, 374.42 297.68 M0.22 0.85 C62.56 50.59, 311.44 249.55, 373.68 299.09" stroke="#1e1e1e" stroke-width="2" fill="none"></path></g><g transform="translate(1272.1057307367632 153.78351109150435) rotate(0 187.01228588727895 148.96885199779894)"><path d="M-0.26 -1.08 L16.83 2.35 L8.95 12.2 L2.55 -0.08" stroke="none" stroke-width="0" fill="#1e1e1e" fill-rule="evenodd"></path><path d="M1.1 -1.16 C3.72 0.19, 8.92 1.05, 15.67 2.39 M1.1 -1.16 C3.9 -0.91, 8.03 -0.19, 15.67 2.39 M15.67 2.39 C12.49 4.66, 11.87 9.12, 7.75 12.29 M15.67 2.39 C12.74 5.16, 10.89 8.87, 7.75 12.29 M7.75 12.29 C5.72 8.92, 4.48 8.18, 1.1 -1.16 M7.75 12.29 C4.97 6.35, 1.97 1.09, 1.1 -1.16 M1.1 -1.16 C1.1 -1.16, 1.1 -1.16, 1.1 -1.16 M1.1 -1.16 C1.1 -1.16, 1.1 -1.16, 1.1 -1.16" stroke="#1e1e1e" stroke-width="2" fill="none"></path></g></g><mask id="mask-9YmApCFzT9_i-1qkQktJM"><rect x="0" y="0" fill="#fff" width="1746.1303025113211" height="551.7212150871022"></rect><rect x="1437.2880376811704" y="290.25236308930334" fill="#000" width="43.65995788574219" height="25" opacity="1"></rect></mask><g transform="translate(1437.2880376811709 290.25236308930334) rotate(0 22.137401353744963 12.495734210731428)"><text x="21.829978942871094" y="17.52" font-family="Virgil, Segoe UI Emoji" font-size="20px" fill="#1e1e1e" text-anchor="middle" style="white-space: pre;" direction="ltr" dominant-baseline="alphabetic">Vote</text></g></svg>